<?xml version="1.0" standalone="no"?>
<!DOCTYPE svg PUBLIC "-//W3C//DTD SVG 20010904//EN"
 "http://www.w3.org/TR/2001/REC-SVG-20010904/DTD/svg10.dtd">
<svg version="1.0" xmlns="http://www.w3.org/2000/svg"
 width="960.000000pt" height="960.000000pt" viewBox="0 0 960.000000 960.000000"
 preserveAspectRatio="xMidYMid meet">
<metadata>
Created by potrace 1.14, written by Peter Selinger 2001-2017
</metadata>
<g transform="translate(0.000000,960.000000) scale(0.100000,-0.100000)"
fill="#000000" stroke="none">
<path d="M4996 9003 c-1 -1 -45 -5 -97 -9 -51 -3 -107 -7 -124 -9 -79 -8 -142
-15 -161 -19 -12 -2 -45 -7 -74 -11 -29 -4 -62 -9 -74 -11 -117 -25 -164 -35
-181 -38 -11 -2 -62 -13 -112 -26 -51 -12 -95 -21 -98 -21 -3 1 -19 -6 -35
-14 -16 -8 -33 -16 -37 -16 -5 0 -33 -7 -63 -16 -30 -9 -61 -18 -67 -19 -19
-3 -153 -53 -188 -69 -16 -8 -49 -19 -72 -26 -24 -7 -43 -15 -43 -19 0 -5 -11
-11 -26 -14 -14 -4 -72 -29 -130 -56 -57 -27 -106 -48 -108 -47 -1 1 -9 -3
-17 -9 -8 -6 -41 -26 -74 -44 -153 -83 -184 -102 -340 -204 -117 -77 -204
-139 -268 -191 -7 -5 -35 -28 -62 -50 -28 -22 -55 -44 -61 -50 -7 -5 -32 -28
-58 -50 -104 -90 -337 -327 -443 -451 -10 -11 -65 -52 -123 -90 -58 -37 -109
-72 -115 -76 -5 -4 -55 -43 -110 -85 -55 -42 -105 -82 -111 -87 -6 -6 -35 -31
-65 -56 -69 -58 -279 -268 -346 -345 -92 -107 -104 -122 -177 -220 -33 -44
-65 -83 -70 -87 -7 -5 -7 -8 -1 -8 6 0 5 -3 -1 -8 -6 -4 -34 -43 -62 -87 -28
-44 -56 -85 -62 -92 -5 -7 -10 -14 -10 -16 0 -2 -25 -47 -55 -100 -30 -52 -55
-100 -55 -106 0 -6 -4 -11 -10 -11 -5 0 -10 -6 -10 -12 0 -7 -18 -48 -40 -91
-22 -43 -40 -85 -40 -93 0 -8 -4 -14 -8 -14 -4 0 -19 -31 -32 -70 -13 -38 -29
-70 -34 -70 -5 0 -7 -3 -4 -6 3 -3 -8 -40 -24 -82 -17 -42 -31 -84 -33 -92 -2
-8 -4 -16 -5 -17 -2 -2 -4 -7 -5 -13 -1 -5 -3 -11 -5 -12 -1 -2 -3 -10 -5 -18
-2 -8 -13 -46 -25 -85 -12 -38 -24 -83 -27 -100 -3 -16 -9 -38 -14 -47 -5 -10
-7 -18 -5 -18 3 0 1 -11 -4 -24 -5 -13 -12 -43 -15 -67 -4 -24 -8 -46 -10 -49
-2 -3 -6 -24 -9 -46 -4 -22 -9 -51 -11 -64 -14 -66 -36 -248 -39 -312 -1 -15
-4 -30 -8 -34 -4 -3 -3 -15 3 -25 5 -11 6 -19 1 -19 -9 0 -7 -459 3 -550 3
-30 7 -71 9 -90 4 -32 8 -69 20 -155 2 -16 7 -41 10 -55 3 -13 8 -42 12 -65 6
-41 36 -182 53 -245 42 -156 64 -226 119 -375 50 -133 60 -158 134 -312 45
-95 151 -287 193 -353 16 -25 34 -52 40 -61 22 -35 68 -103 76 -113 17 -20
104 -139 114 -155 6 -9 19 -24 29 -33 10 -10 16 -18 13 -18 -3 0 7 -12 21 -28
15 -15 52 -56 82 -91 127 -146 404 -407 461 -435 11 -5 19 -13 19 -17 0 -4 15
-16 33 -28 17 -11 41 -28 52 -38 11 -10 37 -29 58 -42 21 -13 43 -28 50 -34 7
-7 22 -17 32 -24 11 -7 51 -31 88 -55 77 -49 114 -70 172 -101 22 -12 42 -24
45 -27 3 -3 34 -19 70 -37 172 -84 230 -111 230 -107 0 3 12 -1 28 -9 15 -8
45 -22 67 -30 22 -9 70 -27 107 -41 36 -14 71 -26 77 -26 6 0 19 -4 29 -9 9
-5 37 -15 62 -21 25 -7 52 -15 60 -18 8 -3 20 -6 27 -8 6 -1 65 -16 131 -33
65 -17 132 -32 148 -33 16 -1 35 -6 43 -12 8 -6 17 -9 20 -8 6 4 94 -6 136
-14 52 -11 176 -23 277 -28 42 -2 80 -6 85 -8 12 -6 281 -2 403 6 141 10 151
11 300 32 30 4 69 8 85 8 33 0 157 -13 190 -20 32 -7 122 -15 215 -19 47 -2
87 -5 90 -6 13 -4 360 -3 360 1 0 3 28 5 63 6 88 1 291 22 387 39 52 9 96 17
115 19 30 4 81 15 171 36 45 11 92 22 105 24 13 3 24 5 24 6 0 1 7 3 16 5 73
14 376 116 505 170 60 26 114 47 119 49 34 7 323 158 475 247 113 66 417 282
483 343 14 13 35 31 47 39 54 38 290 263 391 373 19 22 72 84 118 139 116 139
114 136 141 175 13 19 27 37 30 40 32 30 286 430 272 430 -4 0 -2 4 4 8 12 7
52 81 52 96 0 5 4 12 9 15 11 8 58 104 55 114 -1 4 2 7 7 7 5 0 11 9 14 20 3
11 6 23 7 25 0 3 14 31 30 64 17 33 30 63 30 66 0 3 8 25 19 48 10 23 31 76
45 117 15 41 33 89 39 105 6 17 12 35 13 40 2 6 12 36 23 68 11 31 17 57 14
57 -3 0 -1 6 4 12 9 11 26 70 38 128 2 8 11 44 20 80 9 36 19 76 21 90 3 14
11 57 19 95 8 39 16 86 19 105 3 19 7 45 10 57 6 27 17 122 22 183 1 25 4 45
5 45 2 0 6 49 12 160 10 163 11 231 3 243 -4 7 -3 12 3 12 5 0 8 10 6 23 -2
12 -6 85 -10 162 -3 77 -7 156 -9 175 -6 63 -17 155 -20 175 -2 11 -8 49 -12
85 -4 36 -9 67 -9 70 -1 3 -5 23 -9 45 -4 22 -12 63 -19 90 -6 28 -12 57 -12
65 -1 8 -4 22 -7 30 -3 8 -15 56 -27 105 -45 189 -141 471 -207 609 -8 16 -14
33 -14 38 0 5 -31 71 -69 148 -38 76 -66 141 -63 144 3 4 1 6 -5 6 -5 0 -25
28 -43 63 -41 79 -122 211 -132 215 -5 2 -8 8 -8 13 0 13 -81 133 -92 137 -4
2 -8 10 -8 18 0 8 -4 14 -10 14 -5 0 -10 5 -10 11 0 6 -12 26 -27 44 -16 18
-46 56 -68 84 -22 29 -48 62 -59 74 -10 12 -35 42 -55 67 -112 138 -379 403
-507 503 -30 23 -54 45 -54 49 0 5 -5 8 -11 8 -5 0 -24 13 -42 30 -18 16 -38
30 -44 30 -7 0 -13 4 -13 9 0 5 -17 20 -37 32 -21 13 -44 29 -51 36 -22 21
-211 143 -222 143 -6 0 -10 4 -10 8 0 5 -18 17 -40 28 -22 10 -40 23 -40 27 0
5 -4 5 -10 2 -5 -3 -10 -2 -10 3 0 8 -346 185 -440 225 -133 57 -390 151 -402
147 -2 -1 -20 6 -41 15 -21 9 -42 13 -47 10 -6 -4 -10 -1 -10 4 0 6 -3 10 -7
9 -5 -1 -26 4 -48 10 -22 6 -51 13 -65 16 -14 2 -25 5 -25 6 0 1 -7 3 -15 5
-8 1 -33 7 -55 13 -46 13 -85 20 -135 27 -19 3 -42 7 -50 10 -25 7 -124 23
-250 41 -19 2 -66 7 -105 9 -38 3 -90 8 -115 11 -44 6 -479 12 -484 7z"/>
</g>
</svg>
