<?xml version="1.0" standalone="no"?>
<!DOCTYPE svg PUBLIC "-//W3C//DTD SVG 20010904//EN"
 "http://www.w3.org/TR/2001/REC-SVG-20010904/DTD/svg10.dtd">
<svg version="1.0" xmlns="http://www.w3.org/2000/svg"
 width="960.000000pt" height="960.000000pt" viewBox="0 0 960.000000 960.000000"
 preserveAspectRatio="xMidYMid meet">
<metadata>
Created by potrace 1.14, written by Peter Selinger 2001-2017
</metadata>
<g transform="translate(0.000000,960.000000) scale(0.100000,-0.100000)"
fill="#000000" stroke="none">
<path d="M5055 8930 c-27 -3 -69 -5 -92 -5 -24 1 -43 -2 -43 -5 0 -3 -19 -5
-43 -6 -44 0 -146 -11 -183 -18 -12 -2 -45 -7 -74 -11 -29 -4 -62 -9 -74 -11
-67 -12 -87 -16 -141 -29 -33 -8 -71 -16 -85 -19 -42 -8 -63 -13 -125 -30 -33
-10 -64 -18 -70 -19 -5 -2 -16 -6 -22 -10 -7 -5 -13 -5 -13 -1 0 3 -7 1 -15
-6 -8 -7 -15 -10 -15 -7 0 8 -202 -61 -319 -109 -46 -19 -91 -34 -98 -34 -7 0
-13 -4 -13 -10 0 -5 -4 -10 -9 -10 -5 0 -26 -8 -47 -17 -47 -20 -44 -19 -71
-28 -13 -4 -23 -11 -23 -16 0 -5 -7 -9 -15 -9 -18 0 -57 -20 -67 -35 -4 -5 -8
-7 -8 -3 0 4 -23 -6 -50 -22 -28 -17 -53 -30 -55 -30 -9 0 -230 -133 -276
-166 -41 -28 -192 -78 -337 -109 -12 -3 -66 -21 -120 -41 -53 -19 -104 -37
-112 -39 -8 -2 -17 -4 -20 -5 -3 -1 -8 -2 -12 -1 -5 0 -8 -3 -8 -9 0 -5 -7
-10 -16 -10 -8 0 -41 -12 -72 -26 -124 -57 -147 -67 -154 -66 -5 1 -8 -2 -8
-7 0 -7 -34 -22 -43 -18 -1 0 -20 -11 -42 -25 -22 -13 -55 -31 -72 -39 -18 -8
-33 -17 -33 -21 0 -5 -6 -8 -13 -8 -8 0 -33 -13 -55 -30 -23 -16 -45 -30 -48
-30 -15 0 -310 -208 -355 -250 -35 -34 -79 -70 -84 -70 -3 0 -21 -15 -39 -32
-213 -206 -284 -280 -356 -368 -19 -24 -43 -52 -52 -62 -10 -10 -18 -22 -18
-27 0 -5 -3 -11 -8 -13 -18 -8 -204 -275 -242 -348 -7 -14 -16 -27 -19 -30
-22 -18 -221 -424 -221 -450 0 -6 -6 -24 -14 -38 -8 -15 -22 -49 -31 -77 -9
-27 -20 -59 -25 -70 -20 -46 -78 -250 -96 -335 -3 -14 -9 -42 -15 -63 -6 -21
-12 -53 -14 -71 -3 -19 -9 -46 -15 -60 -6 -18 -6 -25 0 -21 6 4 7 -2 1 -17
-11 -29 -23 -114 -37 -268 -8 -83 -9 -496 -1 -575 19 -195 56 -432 78 -502 6
-17 12 -44 15 -60 3 -15 10 -46 16 -68 5 -22 10 -41 9 -42 0 -2 7 -22 15 -45
9 -24 17 -50 19 -58 2 -8 4 -15 5 -15 1 0 3 -7 5 -15 4 -17 24 -74 36 -105
115 -288 186 -435 289 -603 16 -26 37 -62 46 -80 9 -17 20 -32 24 -32 4 0 13
-13 20 -30 7 -16 16 -30 21 -30 4 0 11 -9 14 -20 3 -11 12 -26 18 -33 24 -25
77 -96 77 -102 0 -3 10 -16 23 -29 28 -30 57 -65 57 -70 0 -13 312 -334 395
-407 160 -140 410 -315 599 -419 76 -42 294 -150 302 -150 3 0 20 -7 37 -15
48 -22 175 -70 237 -90 30 -10 61 -22 68 -28 6 -5 12 -7 12 -4 0 3 21 -1 48
-9 26 -8 58 -17 72 -20 14 -2 37 -9 52 -15 15 -6 31 -8 37 -5 5 4 12 2 15 -3
4 -5 24 -12 46 -16 22 -4 50 -14 62 -24 13 -9 35 -23 50 -30 15 -8 36 -22 45
-31 10 -9 26 -19 35 -23 10 -3 43 -22 73 -42 31 -19 58 -35 60 -35 3 0 23 -11
45 -25 22 -14 46 -25 54 -25 8 0 16 -4 18 -8 5 -15 254 -131 418 -196 119 -47
384 -132 445 -143 17 -3 35 -9 41 -14 6 -5 13 -7 16 -4 2 3 27 -2 54 -10 27
-7 63 -16 79 -19 17 -2 30 -5 30 -6 0 -1 11 -3 25 -5 14 -2 39 -6 55 -9 113
-22 206 -36 275 -42 25 -3 61 -6 80 -8 205 -22 596 -22 780 -1 19 3 58 7 85 9
47 4 269 39 325 51 14 3 41 8 60 11 19 3 38 8 42 10 4 2 28 9 55 14 45 10 85
19 108 24 6 2 17 6 25 9 13 5 84 26 115 33 31 7 216 72 315 111 238 93 644
307 795 420 6 5 33 24 60 43 28 19 52 38 53 42 2 4 8 8 13 8 9 0 118 82 169
127 26 22 66 57 121 103 69 58 323 313 369 370 19 24 44 54 55 66 29 32 44 51
100 124 28 35 54 69 58 75 39 51 97 137 97 144 0 5 4 11 8 13 5 1 29 35 53 73
23 39 46 72 49 75 3 3 15 23 27 45 11 22 30 56 42 75 19 34 180 348 180 353 0
4 18 50 41 102 29 66 146 396 149 420 1 3 1 6 2 8 0 1 2 9 4 17 1 8 12 49 23
90 12 41 23 86 26 100 3 14 14 68 25 120 11 52 22 111 25 130 9 61 27 184 32
218 2 19 7 66 10 105 3 40 7 95 9 122 6 79 6 392 0 485 -14 206 -39 395 -80
595 -2 11 -6 31 -9 45 -3 14 -12 52 -21 85 -8 33 -18 71 -21 85 -3 14 -12 49
-20 77 -9 29 -14 54 -13 55 1 2 -3 14 -10 26 -7 13 -15 35 -17 49 -3 14 -11
38 -19 54 -8 15 -15 34 -15 41 0 21 -122 322 -134 330 -6 4 -8 8 -3 8 4 0 -3
19 -15 43 -12 23 -23 44 -23 47 -1 3 -23 48 -50 100 -27 52 -56 109 -64 125
-9 17 -19 32 -23 33 -4 2 -8 7 -8 12 0 13 -92 160 -177 285 -192 280 -511 630
-747 820 -21 17 -47 38 -59 49 -12 10 -56 44 -97 75 -41 31 -77 58 -80 61 -12
13 -236 158 -244 158 -5 0 -12 4 -15 9 -19 27 -347 199 -531 278 -93 40 -235
94 -263 100 -9 2 -23 7 -30 12 -6 4 -14 8 -17 8 -5 0 -85 24 -110 33 -8 3 -19
6 -25 8 -153 43 -182 50 -240 63 -85 19 -151 33 -180 37 -34 6 -61 11 -90 17
-11 3 -47 8 -80 11 -33 4 -67 9 -75 11 -8 3 -49 7 -90 10 -41 3 -93 8 -115 10
-57 8 -450 11 -510 5z"/>
</g>
</svg>
