<?xml version="1.0" encoding="UTF-8"?>
<svg xmlns="http://www.w3.org/2000/svg" xmlns:xlink="http://www.w3.org/1999/xlink" width="360pt" height="324pt" viewBox="0 0 360 324" version="1.1">
<g id="surface8">
<path style=" stroke:none;fill-rule:evenodd;fill:rgb(0%,0%,0%);fill-opacity:1;" d="M 351.820313 161.386719 C 351.820313 120.414063 335.542969 81.117188 306.570313 52.144531 C 277.597656 23.167969 238.300781 6.894531 197.328125 6.894531 C 156.351563 6.894531 117.054688 23.167969 88.082031 52.144531 C 59.109375 81.117188 42.832031 120.414063 42.832031 161.386719 C 42.832031 202.359375 59.109375 241.65625 88.082031 270.628906 C 117.054688 299.601563 156.351563 315.878906 197.328125 315.878906 C 238.300781 315.878906 277.597656 299.601563 306.570313 270.628906 C 335.542969 241.65625 351.820313 202.359375 351.820313 161.386719 Z M 351.820313 161.386719 "/>
<path style=" stroke:none;fill-rule:evenodd;fill:rgb(94.998169%,30.000305%,10.00061%);fill-opacity:1;" d="M 268.632813 161.386719 C 268.632813 126.714844 254.859375 93.464844 230.34375 68.949219 C 205.828125 44.433594 172.574219 30.660156 137.90625 30.660156 C 103.234375 30.660156 69.984375 44.433594 45.46875 68.949219 C 20.953125 93.464844 7.179688 126.714844 7.179688 161.386719 C 7.179688 196.058594 20.953125 229.308594 45.46875 253.824219 C 69.984375 278.339844 103.234375 292.113281 137.90625 292.113281 C 172.574219 292.113281 205.828125 278.339844 230.34375 253.824219 C 254.859375 229.308594 268.632813 196.058594 268.632813 161.386719 Z M 268.632813 161.386719 "/>
</g>
</svg>
