<?xml version="1.0" encoding="UTF-8"?>
<svg xmlns="http://www.w3.org/2000/svg" xmlns:xlink="http://www.w3.org/1999/xlink" width="360pt" height="329pt" viewBox="0 0 360 329" version="1.1">
<g id="surface4">
<path style=" stroke:none;fill-rule:evenodd;fill:rgb(94.998169%,30.000305%,10.00061%);fill-opacity:1;" d="M 351.820313 164.097656 C 351.820313 122.402344 335.257813 82.417969 305.777344 52.9375 C 276.292969 23.457031 236.308594 6.894531 194.617188 6.894531 C 152.921875 6.894531 112.9375 23.457031 83.457031 52.9375 C 53.972656 82.417969 37.410156 122.402344 37.410156 164.097656 C 37.410156 205.789063 53.972656 245.777344 83.457031 275.257813 C 112.9375 304.738281 152.921875 321.300781 194.617188 321.300781 C 236.308594 321.300781 276.292969 304.738281 305.777344 275.257813 C 335.257813 245.777344 351.820313 205.789063 351.820313 164.097656 Z M 351.820313 164.097656 "/>
<path style=" stroke:none;fill-rule:evenodd;fill:rgb(94.998169%,31.910706%,10.636902%);fill-opacity:1;" d="M 350.246094 164.097656 C 350.246094 122.820313 333.851563 83.234375 304.664063 54.046875 C 275.476563 24.863281 235.890625 8.464844 194.617188 8.464844 C 153.339844 8.464844 113.753906 24.863281 84.566406 54.046875 C 55.378906 83.234375 38.984375 122.820313 38.984375 164.097656 C 38.984375 205.375 55.378906 244.957031 84.566406 274.144531 C 113.753906 303.332031 153.339844 319.730469 194.617188 319.730469 C 235.890625 319.730469 275.476563 303.332031 304.664063 274.144531 C 333.851563 244.957031 350.246094 205.375 350.246094 164.097656 Z M 350.246094 164.097656 "/>
<path style=" stroke:none;fill-rule:evenodd;fill:rgb(94.998169%,33.215332%,11.071777%);fill-opacity:1;" d="M 348.675781 164.097656 C 348.675781 123.238281 332.445313 84.050781 303.554688 55.160156 C 274.660156 26.269531 235.476563 10.035156 194.617188 10.035156 C 153.757813 10.035156 114.570313 26.269531 85.679688 55.160156 C 56.785156 84.050781 40.554688 123.238281 40.554688 164.097656 C 40.554688 204.957031 56.785156 244.140625 85.679688 273.035156 C 114.570313 301.925781 153.757813 318.15625 194.617188 318.15625 C 235.476563 318.15625 274.660156 301.925781 303.554688 273.035156 C 332.445313 244.140625 348.675781 204.957031 348.675781 164.097656 Z M 348.675781 164.097656 "/>
<path style=" stroke:none;fill-rule:evenodd;fill:rgb(94.998169%,34.356689%,11.451721%);fill-opacity:1;" d="M 347.105469 164.097656 C 347.105469 123.65625 331.039063 84.867188 302.441406 56.273438 C 273.84375 27.675781 235.058594 11.609375 194.617188 11.609375 C 154.171875 11.609375 115.386719 27.675781 86.789063 56.273438 C 58.195313 84.867188 42.128906 123.65625 42.128906 164.097656 C 42.128906 204.539063 58.195313 243.324219 86.789063 271.921875 C 115.386719 300.519531 154.171875 316.585938 194.617188 316.585938 C 235.058594 316.585938 273.84375 300.519531 302.441406 271.921875 C 331.039063 243.324219 347.105469 204.539063 347.105469 164.097656 Z M 347.105469 164.097656 "/>
<path style=" stroke:none;fill-rule:evenodd;fill:rgb(94.998169%,35.406494%,11.802673%);fill-opacity:1;" d="M 345.53125 164.097656 C 345.53125 124.070313 329.632813 85.683594 301.328125 57.382813 C 273.027344 29.082031 234.640625 13.179688 194.617188 13.179688 C 154.589844 13.179688 116.203125 29.082031 87.902344 57.382813 C 59.601563 85.683594 43.699219 124.070313 43.699219 164.097656 C 43.699219 204.121094 59.601563 242.507813 87.902344 270.8125 C 116.203125 299.113281 154.589844 315.011719 194.617188 315.011719 C 234.640625 315.011719 273.027344 299.113281 301.328125 270.8125 C 329.632813 242.507813 345.53125 204.121094 345.53125 164.097656 Z M 345.53125 164.097656 "/>
<path style=" stroke:none;fill-rule:evenodd;fill:rgb(94.998169%,36.392212%,12.130737%);fill-opacity:1;" d="M 343.960938 164.097656 C 343.960938 124.488281 328.226563 86.503906 300.21875 58.496094 C 272.210938 30.488281 234.222656 14.753906 194.617188 14.753906 C 155.007813 14.753906 117.019531 30.488281 89.011719 58.496094 C 61.007813 86.503906 45.273438 124.488281 45.273438 164.097656 C 45.273438 203.707031 61.007813 241.691406 89.011719 269.699219 C 117.019531 297.707031 155.007813 313.441406 194.617188 313.441406 C 234.222656 313.441406 272.210938 297.707031 300.21875 269.699219 C 328.226563 241.691406 343.960938 203.707031 343.960938 164.097656 Z M 343.960938 164.097656 "/>
<path style=" stroke:none;fill-rule:evenodd;fill:rgb(94.998169%,37.327576%,12.442017%);fill-opacity:1;" d="M 342.386719 164.097656 C 342.386719 124.90625 326.820313 87.320313 299.105469 59.605469 C 271.394531 31.894531 233.808594 16.324219 194.617188 16.324219 C 155.425781 16.324219 117.835938 31.894531 90.125 59.605469 C 62.414063 87.320313 46.84375 124.90625 46.84375 164.097656 C 46.84375 203.289063 62.414063 240.875 90.125 268.585938 C 117.835938 296.300781 155.425781 311.867188 194.617188 311.867188 C 233.808594 311.867188 271.394531 296.300781 299.105469 268.585938 C 326.820313 240.875 342.386719 203.289063 342.386719 164.097656 Z M 342.386719 164.097656 "/>
<path style=" stroke:none;fill-rule:evenodd;fill:rgb(94.998169%,38.226318%,12.742615%);fill-opacity:1;" d="M 340.816406 164.097656 C 340.816406 125.324219 325.414063 88.136719 297.996094 60.71875 C 270.578125 33.300781 233.390625 17.898438 194.617188 17.898438 C 155.839844 17.898438 118.65625 33.300781 91.238281 60.71875 C 63.820313 88.136719 48.414063 125.324219 48.414063 164.097656 C 48.414063 202.871094 63.820313 240.058594 91.238281 267.476563 C 118.65625 294.894531 155.839844 310.296875 194.617188 310.296875 C 233.390625 310.296875 270.578125 294.894531 297.996094 267.476563 C 325.414063 240.058594 340.816406 202.871094 340.816406 164.097656 Z M 340.816406 164.097656 "/>
<path style=" stroke:none;fill-rule:evenodd;fill:rgb(94.998169%,39.093018%,13.031006%);fill-opacity:1;" d="M 339.242188 164.097656 C 339.242188 125.738281 324.007813 88.953125 296.882813 61.828125 C 269.761719 34.707031 232.972656 19.46875 194.617188 19.46875 C 156.257813 19.46875 119.472656 34.707031 92.347656 61.828125 C 65.226563 88.953125 49.988281 125.738281 49.988281 164.097656 C 49.988281 202.453125 65.226563 239.242188 92.347656 266.363281 C 119.472656 293.488281 156.257813 308.726563 194.617188 308.726563 C 232.972656 308.726563 269.761719 293.488281 296.882813 266.363281 C 324.007813 239.242188 339.242188 202.453125 339.242188 164.097656 Z M 339.242188 164.097656 "/>
<path style=" stroke:none;fill-rule:evenodd;fill:rgb(94.998169%,39.932251%,13.310242%);fill-opacity:1;" d="M 337.671875 164.097656 C 337.671875 126.15625 322.601563 89.769531 295.773438 62.941406 C 268.945313 36.113281 232.554688 21.042969 194.617188 21.042969 C 156.675781 21.042969 120.289063 36.113281 93.460938 62.941406 C 66.632813 89.769531 51.558594 126.15625 51.558594 164.097656 C 51.558594 202.039063 66.632813 238.425781 93.460938 265.253906 C 120.289063 292.082031 156.675781 307.152344 194.617188 307.152344 C 232.554688 307.152344 268.945313 292.082031 295.773438 265.253906 C 322.601563 238.425781 337.671875 202.039063 337.671875 164.097656 Z M 337.671875 164.097656 "/>
<path style=" stroke:none;fill-rule:evenodd;fill:rgb(94.998169%,40.750122%,13.583374%);fill-opacity:1;" d="M 336.097656 164.097656 C 336.097656 126.574219 321.191406 90.585938 294.660156 64.054688 C 268.125 37.519531 232.140625 22.613281 194.617188 22.613281 C 157.09375 22.613281 121.105469 37.519531 94.570313 64.054688 C 68.039063 90.585938 53.132813 126.574219 53.132813 164.097656 C 53.132813 201.621094 68.039063 237.609375 94.570313 264.140625 C 121.105469 290.675781 157.09375 305.582031 194.617188 305.582031 C 232.140625 305.582031 268.125 290.675781 294.660156 264.140625 C 321.191406 237.609375 336.097656 201.621094 336.097656 164.097656 Z M 336.097656 164.097656 "/>
<path style=" stroke:none;fill-rule:evenodd;fill:rgb(94.998169%,41.546631%,13.848877%);fill-opacity:1;" d="M 334.527344 164.097656 C 334.527344 126.988281 319.785156 91.402344 293.546875 65.164063 C 267.308594 38.925781 231.722656 24.183594 194.617188 24.183594 C 157.507813 24.183594 121.921875 38.925781 95.683594 65.164063 C 69.445313 91.402344 54.703125 126.988281 54.703125 164.097656 C 54.703125 201.203125 69.445313 236.789063 95.683594 263.03125 C 121.921875 289.269531 157.507813 304.007813 194.617188 304.007813 C 231.722656 304.007813 267.308594 289.269531 293.546875 263.03125 C 319.785156 236.789063 334.527344 201.203125 334.527344 164.097656 Z M 334.527344 164.097656 "/>
<path style=" stroke:none;fill-rule:evenodd;fill:rgb(94.998169%,42.324829%,14.108276%);fill-opacity:1;" d="M 332.957031 164.097656 C 332.957031 127.40625 318.378906 92.21875 292.4375 66.277344 C 266.492188 40.332031 231.304688 25.757813 194.617188 25.757813 C 157.925781 25.757813 122.738281 40.332031 96.792969 66.277344 C 70.851563 92.21875 56.277344 127.40625 56.277344 164.097656 C 56.277344 200.785156 70.851563 235.972656 96.792969 261.917969 C 122.738281 287.863281 157.925781 302.4375 194.617188 302.4375 C 231.304688 302.4375 266.492188 287.863281 292.4375 261.917969 C 318.378906 235.972656 332.957031 200.785156 332.957031 164.097656 Z M 332.957031 164.097656 "/>
<path style=" stroke:none;fill-rule:evenodd;fill:rgb(94.998169%,43.087769%,14.363098%);fill-opacity:1;" d="M 331.382813 164.097656 C 331.382813 127.824219 316.972656 93.035156 291.324219 67.386719 C 265.675781 41.738281 230.890625 27.328125 194.617188 27.328125 C 158.34375 27.328125 123.554688 41.738281 97.90625 67.386719 C 72.257813 93.035156 57.847656 127.824219 57.847656 164.097656 C 57.847656 200.371094 72.257813 235.15625 97.90625 260.804688 C 123.554688 286.457031 158.34375 300.863281 194.617188 300.863281 C 230.890625 300.863281 265.675781 286.457031 291.324219 260.804688 C 316.972656 235.15625 331.382813 200.371094 331.382813 164.097656 Z M 331.382813 164.097656 "/>
<path style=" stroke:none;fill-rule:evenodd;fill:rgb(94.998169%,43.835449%,14.611816%);fill-opacity:1;" d="M 329.8125 164.097656 C 329.8125 128.242188 315.566406 93.851563 290.214844 68.5 C 264.859375 43.144531 230.472656 28.902344 194.617188 28.902344 C 158.757813 28.902344 124.371094 43.144531 99.019531 68.5 C 73.664063 93.851563 59.421875 128.242188 59.421875 164.097656 C 59.421875 199.953125 73.664063 234.339844 99.019531 259.695313 C 124.371094 285.050781 158.757813 299.292969 194.617188 299.292969 C 230.472656 299.292969 264.859375 285.050781 290.214844 259.695313 C 315.566406 234.339844 329.8125 199.953125 329.8125 164.097656 Z M 329.8125 164.097656 "/>
<path style=" stroke:none;fill-rule:evenodd;fill:rgb(94.998169%,44.570923%,14.857483%);fill-opacity:1;" d="M 328.238281 164.097656 C 328.238281 128.65625 314.160156 94.671875 289.101563 69.609375 C 264.042969 44.550781 230.054688 30.472656 194.617188 30.472656 C 159.175781 30.472656 125.1875 44.550781 100.128906 69.609375 C 75.070313 94.671875 60.992188 128.65625 60.992188 164.097656 C 60.992188 199.535156 75.070313 233.523438 100.128906 258.582031 C 125.1875 283.640625 159.175781 297.71875 194.617188 297.71875 C 230.054688 297.71875 264.042969 283.640625 289.101563 258.582031 C 314.160156 233.523438 328.238281 199.535156 328.238281 164.097656 Z M 328.238281 164.097656 "/>
<path style=" stroke:none;fill-rule:evenodd;fill:rgb(94.998169%,45.292664%,15.097046%);fill-opacity:1;" d="M 326.667969 164.097656 C 326.667969 129.074219 312.753906 95.488281 287.992188 70.722656 C 263.226563 45.957031 229.636719 32.046875 194.617188 32.046875 C 159.59375 32.046875 126.003906 45.957031 101.242188 70.722656 C 76.476563 95.488281 62.5625 129.074219 62.5625 164.097656 C 62.5625 199.121094 76.476563 232.707031 101.242188 257.472656 C 126.003906 282.234375 159.59375 296.148438 194.617188 296.148438 C 229.636719 296.148438 263.226563 282.234375 287.992188 257.472656 C 312.753906 232.707031 326.667969 199.121094 326.667969 164.097656 Z M 326.667969 164.097656 "/>
<path style=" stroke:none;fill-rule:evenodd;fill:rgb(94.998169%,46.005249%,15.335083%);fill-opacity:1;" d="M 325.09375 164.097656 C 325.09375 129.492188 311.347656 96.304688 286.878906 71.835938 C 262.410156 47.363281 229.222656 33.617188 194.617188 33.617188 C 160.011719 33.617188 126.824219 47.363281 102.351563 71.835938 C 77.882813 96.304688 64.136719 129.492188 64.136719 164.097656 C 64.136719 198.703125 77.882813 231.890625 102.351563 256.359375 C 126.824219 280.828125 160.011719 294.578125 194.617188 294.578125 C 229.222656 294.578125 262.410156 280.828125 286.878906 256.359375 C 311.347656 231.890625 325.09375 198.703125 325.09375 164.097656 Z M 325.09375 164.097656 "/>
<path style=" stroke:none;fill-rule:evenodd;fill:rgb(94.998169%,46.705627%,15.568542%);fill-opacity:1;" d="M 323.523438 164.097656 C 323.523438 129.910156 309.941406 97.121094 285.765625 72.945313 C 261.59375 48.769531 228.804688 35.191406 194.617188 35.191406 C 160.425781 35.191406 127.640625 48.769531 103.464844 72.945313 C 79.289063 97.121094 65.707031 129.910156 65.707031 164.097656 C 65.707031 198.285156 79.289063 231.074219 103.464844 255.25 C 127.640625 279.421875 160.425781 293.003906 194.617188 293.003906 C 228.804688 293.003906 261.59375 279.421875 285.765625 255.25 C 309.941406 231.074219 323.523438 198.285156 323.523438 164.097656 Z M 323.523438 164.097656 "/>
<path style=" stroke:none;fill-rule:evenodd;fill:rgb(94.998169%,47.396851%,15.79895%);fill-opacity:1;" d="M 321.953125 164.097656 C 321.953125 130.324219 308.535156 97.9375 284.65625 74.058594 C 260.777344 50.175781 228.386719 36.761719 194.617188 36.761719 C 160.84375 36.761719 128.457031 50.175781 104.574219 74.058594 C 80.695313 97.9375 67.28125 130.324219 67.28125 164.097656 C 67.28125 197.867188 80.695313 230.257813 104.574219 254.136719 C 128.457031 278.015625 160.84375 291.433594 194.617188 291.433594 C 228.386719 291.433594 260.777344 278.015625 284.65625 254.136719 C 308.535156 230.257813 321.953125 197.867188 321.953125 164.097656 Z M 321.953125 164.097656 "/>
<path style=" stroke:none;fill-rule:evenodd;fill:rgb(94.998169%,48.078918%,16.026306%);fill-opacity:1;" d="M 320.378906 164.097656 C 320.378906 130.742188 307.128906 98.753906 283.542969 75.167969 C 259.957031 51.582031 227.96875 38.332031 194.617188 38.332031 C 161.261719 38.332031 129.273438 51.582031 105.6875 75.167969 C 82.101563 98.753906 68.851563 130.742188 68.851563 164.097656 C 68.851563 197.453125 82.101563 229.441406 105.6875 253.023438 C 129.273438 276.609375 161.261719 289.859375 194.617188 289.859375 C 227.96875 289.859375 259.957031 276.609375 283.542969 253.023438 C 307.128906 229.441406 320.378906 197.453125 320.378906 164.097656 Z M 320.378906 164.097656 "/>
<path style=" stroke:none;fill-rule:evenodd;fill:rgb(94.998169%,48.753357%,16.25061%);fill-opacity:1;" d="M 318.808594 164.097656 C 318.808594 131.160156 305.722656 99.570313 282.433594 76.28125 C 259.140625 52.988281 227.554688 39.90625 194.617188 39.90625 C 161.679688 39.90625 130.089844 52.988281 106.800781 76.28125 C 83.507813 99.570313 70.425781 131.160156 70.425781 164.097656 C 70.425781 197.035156 83.507813 228.625 106.800781 251.914063 C 130.089844 275.203125 161.679688 288.289063 194.617188 288.289063 C 227.554688 288.289063 259.140625 275.203125 282.433594 251.914063 C 305.722656 228.625 318.808594 197.035156 318.808594 164.097656 Z M 318.808594 164.097656 "/>
<path style=" stroke:none;fill-rule:evenodd;fill:rgb(94.998169%,49.41864%,16.473389%);fill-opacity:1;" d="M 317.234375 164.097656 C 317.234375 131.578125 304.316406 100.386719 281.320313 77.390625 C 258.324219 54.398438 227.136719 41.476563 194.617188 41.476563 C 162.09375 41.476563 130.90625 54.398438 107.910156 77.390625 C 84.914063 100.386719 71.996094 131.578125 71.996094 164.097656 C 71.996094 196.617188 84.914063 227.804688 107.910156 250.800781 C 130.90625 273.796875 162.09375 286.714844 194.617188 286.714844 C 227.136719 286.714844 258.324219 273.796875 281.320313 250.800781 C 304.316406 227.804688 317.234375 196.617188 317.234375 164.097656 Z M 317.234375 164.097656 "/>
<path style=" stroke:none;fill-rule:evenodd;fill:rgb(94.998169%,50.07782%,16.693115%);fill-opacity:1;" d="M 315.664063 164.097656 C 315.664063 131.992188 302.910156 101.203125 280.210938 78.503906 C 257.507813 55.804688 226.71875 43.050781 194.617188 43.050781 C 162.511719 43.050781 131.722656 55.804688 109.023438 78.503906 C 86.320313 101.203125 73.570313 131.992188 73.570313 164.097656 C 73.570313 196.199219 86.320313 226.988281 109.023438 249.691406 C 131.722656 272.390625 162.511719 285.144531 194.617188 285.144531 C 226.71875 285.144531 257.507813 272.390625 280.210938 249.691406 C 302.910156 226.988281 315.664063 196.199219 315.664063 164.097656 Z M 315.664063 164.097656 "/>
<path style=" stroke:none;fill-rule:evenodd;fill:rgb(94.998169%,50.727844%,16.90979%);fill-opacity:1;" d="M 314.089844 164.097656 C 314.089844 132.410156 301.503906 102.019531 279.097656 79.617188 C 256.691406 57.210938 226.300781 44.621094 194.617188 44.621094 C 162.929688 44.621094 132.539063 57.210938 110.132813 79.617188 C 87.726563 102.019531 75.140625 132.410156 75.140625 164.097656 C 75.140625 195.785156 87.726563 226.171875 110.132813 248.578125 C 132.539063 270.984375 162.929688 283.570313 194.617188 283.570313 C 226.300781 283.570313 256.691406 270.984375 279.097656 248.578125 C 301.503906 226.171875 314.089844 195.785156 314.089844 164.097656 Z M 314.089844 164.097656 "/>
<path style=" stroke:none;fill-rule:evenodd;fill:rgb(94.998169%,51.373291%,17.124939%);fill-opacity:1;" d="M 312.519531 164.097656 C 312.519531 132.828125 300.097656 102.839844 277.984375 80.726563 C 255.875 58.617188 225.886719 46.195313 194.617188 46.195313 C 163.347656 46.195313 133.355469 58.617188 111.246094 80.726563 C 89.132813 102.839844 76.710938 132.828125 76.710938 164.097656 C 76.710938 195.367188 89.132813 225.355469 111.246094 247.46875 C 133.355469 269.578125 163.347656 282 194.617188 282 C 225.886719 282 255.875 269.578125 277.984375 247.46875 C 300.097656 225.355469 312.519531 195.367188 312.519531 164.097656 Z M 312.519531 164.097656 "/>
<path style=" stroke:none;fill-rule:evenodd;fill:rgb(94.998169%,52.011108%,17.337036%);fill-opacity:1;" d="M 310.945313 164.097656 C 310.945313 133.242188 298.691406 103.65625 276.875 81.839844 C 255.058594 60.023438 225.46875 47.765625 194.617188 47.765625 C 163.761719 47.765625 134.171875 60.023438 112.355469 81.839844 C 90.539063 103.65625 78.285156 133.242188 78.285156 164.097656 C 78.285156 194.949219 90.539063 224.539063 112.355469 246.355469 C 134.171875 268.171875 163.761719 280.429688 194.617188 280.429688 C 225.46875 280.429688 255.058594 268.171875 276.875 246.355469 C 298.691406 224.539063 310.945313 194.949219 310.945313 164.097656 Z M 310.945313 164.097656 "/>
<path style=" stroke:none;fill-rule:evenodd;fill:rgb(94.998169%,52.642822%,17.547607%);fill-opacity:1;" d="M 309.375 164.097656 C 309.375 133.660156 297.285156 104.472656 275.761719 82.949219 C 254.242188 61.429688 225.050781 49.339844 194.617188 49.339844 C 164.179688 49.339844 134.992188 61.429688 113.46875 82.949219 C 91.949219 104.472656 79.855469 133.660156 79.855469 164.097656 C 79.855469 194.53125 91.949219 223.722656 113.46875 245.242188 C 134.992188 266.765625 164.179688 278.855469 194.617188 278.855469 C 225.050781 278.855469 254.242188 266.765625 275.761719 245.242188 C 297.285156 223.722656 309.375 194.53125 309.375 164.097656 Z M 309.375 164.097656 "/>
<path style=" stroke:none;fill-rule:evenodd;fill:rgb(94.998169%,53.268433%,17.756653%);fill-opacity:1;" d="M 307.804688 164.097656 C 307.804688 134.078125 295.878906 105.289063 274.652344 84.0625 C 253.425781 62.835938 224.636719 50.910156 194.617188 50.910156 C 164.597656 50.910156 135.808594 62.835938 114.582031 84.0625 C 93.355469 105.289063 81.429688 134.078125 81.429688 164.097656 C 81.429688 194.117188 93.355469 222.90625 114.582031 244.132813 C 135.808594 265.359375 164.597656 277.285156 194.617188 277.285156 C 224.636719 277.285156 253.425781 265.359375 274.652344 244.132813 C 295.878906 222.90625 307.804688 194.117188 307.804688 164.097656 Z M 307.804688 164.097656 "/>
<path style=" stroke:none;fill-rule:evenodd;fill:rgb(94.998169%,53.889465%,17.962646%);fill-opacity:1;" d="M 306.230469 164.097656 C 306.230469 134.496094 294.472656 106.105469 273.539063 85.171875 C 252.609375 64.242188 224.21875 52.480469 194.617188 52.480469 C 165.011719 52.480469 136.625 64.242188 115.691406 85.171875 C 94.761719 106.105469 83 134.496094 83 164.097656 C 83 193.699219 94.761719 222.089844 115.691406 243.019531 C 136.625 263.953125 165.011719 275.710938 194.617188 275.710938 C 224.21875 275.710938 252.609375 263.953125 273.539063 243.019531 C 294.472656 222.089844 306.230469 193.699219 306.230469 164.097656 Z M 306.230469 164.097656 "/>
<path style=" stroke:none;fill-rule:evenodd;fill:rgb(94.998169%,54.504395%,18.16864%);fill-opacity:1;" d="M 304.660156 164.097656 C 304.660156 134.910156 293.066406 106.921875 272.429688 86.285156 C 251.789063 65.648438 223.800781 54.054688 194.617188 54.054688 C 165.429688 54.054688 137.441406 65.648438 116.804688 86.285156 C 96.167969 106.921875 84.574219 134.910156 84.574219 164.097656 C 84.574219 193.28125 96.167969 221.273438 116.804688 241.910156 C 137.441406 262.546875 165.429688 274.140625 194.617188 274.140625 C 223.800781 274.140625 251.789063 262.546875 272.429688 241.910156 C 293.066406 221.273438 304.660156 193.28125 304.660156 164.097656 Z M 304.660156 164.097656 "/>
<path style=" stroke:none;fill-rule:evenodd;fill:rgb(94.998169%,55.114746%,18.371582%);fill-opacity:1;" d="M 303.085938 164.097656 C 303.085938 135.328125 291.660156 107.738281 271.316406 87.398438 C 250.972656 67.054688 223.382813 55.625 194.617188 55.625 C 165.847656 55.625 138.257813 67.054688 117.914063 87.398438 C 97.574219 107.738281 86.144531 135.328125 86.144531 164.097656 C 86.144531 192.867188 97.574219 220.457031 117.914063 240.796875 C 138.257813 261.140625 165.847656 272.566406 194.617188 272.566406 C 223.382813 272.566406 250.972656 261.140625 271.316406 240.796875 C 291.660156 220.457031 303.085938 192.867188 303.085938 164.097656 Z M 303.085938 164.097656 "/>
<path style=" stroke:none;fill-rule:evenodd;fill:rgb(94.998169%,55.72052%,18.572998%);fill-opacity:1;" d="M 301.515625 164.097656 C 301.515625 135.746094 290.253906 108.554688 270.203125 88.507813 C 250.15625 68.460938 222.96875 57.199219 194.617188 57.199219 C 166.265625 57.199219 139.074219 68.460938 119.027344 88.507813 C 98.980469 108.554688 87.71875 135.746094 87.71875 164.097656 C 87.71875 192.449219 98.980469 219.636719 119.027344 239.6875 C 139.074219 259.734375 166.265625 270.996094 194.617188 270.996094 C 222.96875 270.996094 250.15625 259.734375 270.203125 239.6875 C 290.253906 219.636719 301.515625 192.449219 301.515625 164.097656 Z M 301.515625 164.097656 "/>
<path style=" stroke:none;fill-rule:evenodd;fill:rgb(94.998169%,56.32019%,18.772888%);fill-opacity:1;" d="M 299.941406 164.097656 C 299.941406 136.164063 288.847656 109.371094 269.09375 89.621094 C 249.339844 69.867188 222.550781 58.769531 194.617188 58.769531 C 166.679688 58.769531 139.890625 69.867188 120.136719 89.621094 C 100.386719 109.371094 89.289063 136.164063 89.289063 164.097656 C 89.289063 192.03125 100.386719 218.820313 120.136719 238.574219 C 139.890625 258.328125 166.679688 269.425781 194.617188 269.425781 C 222.550781 269.425781 249.339844 258.328125 269.09375 238.574219 C 288.847656 218.820313 299.941406 192.03125 299.941406 164.097656 Z M 299.941406 164.097656 "/>
<path style=" stroke:none;fill-rule:evenodd;fill:rgb(94.998169%,56.916809%,18.972778%);fill-opacity:1;" d="M 298.371094 164.097656 C 298.371094 136.578125 287.4375 110.1875 267.980469 90.730469 C 248.523438 71.273438 222.132813 60.34375 194.617188 60.34375 C 167.097656 60.34375 140.707031 71.273438 121.25 90.730469 C 101.792969 110.1875 90.859375 136.578125 90.859375 164.097656 C 90.859375 191.613281 101.792969 218.003906 121.25 237.460938 C 140.707031 256.921875 167.097656 267.851563 194.617188 267.851563 C 222.132813 267.851563 248.523438 256.921875 267.980469 237.460938 C 287.4375 218.003906 298.371094 191.613281 298.371094 164.097656 Z M 298.371094 164.097656 "/>
<path style=" stroke:none;fill-rule:evenodd;fill:rgb(94.998169%,57.50885%,19.169617%);fill-opacity:1;" d="M 296.796875 164.097656 C 296.796875 136.996094 286.03125 111.007813 266.871094 91.84375 C 247.707031 72.679688 221.714844 61.914063 194.617188 61.914063 C 167.515625 61.914063 141.523438 72.679688 122.363281 91.84375 C 103.199219 111.007813 92.433594 136.996094 92.433594 164.097656 C 92.433594 191.199219 103.199219 217.1875 122.363281 236.351563 C 141.523438 255.515625 167.515625 266.28125 194.617188 266.28125 C 221.714844 266.28125 247.707031 255.515625 266.871094 236.351563 C 286.03125 217.1875 296.796875 191.199219 296.796875 164.097656 Z M 296.796875 164.097656 "/>
<path style=" stroke:none;fill-rule:evenodd;fill:rgb(94.998169%,58.096313%,19.364929%);fill-opacity:1;" d="M 295.226563 164.097656 C 295.226563 137.414063 284.625 111.824219 265.757813 92.953125 C 246.890625 74.085938 221.300781 63.484375 194.617188 63.484375 C 167.933594 63.484375 142.339844 74.085938 123.472656 92.953125 C 104.605469 111.824219 94.003906 137.414063 94.003906 164.097656 C 94.003906 190.78125 104.605469 216.371094 123.472656 235.238281 C 142.339844 254.109375 167.933594 264.707031 194.617188 264.707031 C 221.300781 264.707031 246.890625 254.109375 265.757813 235.238281 C 284.625 216.371094 295.226563 190.78125 295.226563 164.097656 Z M 295.226563 164.097656 "/>
<path style=" stroke:none;fill-rule:evenodd;fill:rgb(94.998169%,58.679199%,19.560242%);fill-opacity:1;" d="M 293.65625 164.097656 C 293.65625 137.832031 283.21875 112.640625 264.648438 94.066406 C 246.074219 75.492188 220.882813 65.058594 194.617188 65.058594 C 168.347656 65.058594 143.160156 75.492188 124.585938 94.066406 C 106.011719 112.640625 95.578125 137.832031 95.578125 164.097656 C 95.578125 190.363281 106.011719 215.554688 124.585938 234.128906 C 143.160156 252.703125 168.347656 263.136719 194.617188 263.136719 C 220.882813 263.136719 246.074219 252.703125 264.648438 234.128906 C 283.21875 215.554688 293.65625 190.363281 293.65625 164.097656 Z M 293.65625 164.097656 "/>
<path style=" stroke:none;fill-rule:evenodd;fill:rgb(94.998169%,59.259033%,19.752502%);fill-opacity:1;" d="M 292.082031 164.097656 C 292.082031 138.246094 281.8125 113.457031 263.535156 95.175781 C 245.257813 76.898438 220.464844 66.628906 194.617188 66.628906 C 168.765625 66.628906 143.976563 76.898438 125.695313 95.175781 C 107.417969 113.457031 97.148438 138.246094 97.148438 164.097656 C 97.148438 189.945313 107.417969 214.738281 125.695313 233.015625 C 143.976563 251.292969 168.765625 261.5625 194.617188 261.5625 C 220.464844 261.5625 245.257813 251.292969 263.535156 233.015625 C 281.8125 214.738281 292.082031 189.945313 292.082031 164.097656 Z M 292.082031 164.097656 "/>
<path style=" stroke:none;fill-rule:evenodd;fill:rgb(94.998169%,59.83429%,19.944763%);fill-opacity:1;" d="M 290.511719 164.097656 C 290.511719 138.664063 280.40625 114.273438 262.421875 96.289063 C 244.441406 78.304688 220.046875 68.203125 194.617188 68.203125 C 169.183594 68.203125 144.792969 78.304688 126.808594 96.289063 C 108.824219 114.273438 98.722656 138.664063 98.722656 164.097656 C 98.722656 189.53125 108.824219 213.921875 126.808594 231.90625 C 144.792969 249.886719 169.183594 259.992188 194.617188 259.992188 C 220.046875 259.992188 244.441406 249.886719 262.421875 231.90625 C 280.40625 213.921875 290.511719 189.53125 290.511719 164.097656 Z M 290.511719 164.097656 "/>
<path style=" stroke:none;fill-rule:evenodd;fill:rgb(94.998169%,60.406494%,20.135498%);fill-opacity:1;" d="M 288.9375 164.097656 C 288.9375 139.082031 279 115.089844 261.3125 97.402344 C 243.621094 79.710938 219.632813 69.773438 194.617188 69.773438 C 169.601563 69.773438 145.609375 79.710938 127.917969 97.402344 C 110.230469 115.089844 100.292969 139.082031 100.292969 164.097656 C 100.292969 189.113281 110.230469 213.105469 127.917969 230.792969 C 145.609375 248.480469 169.601563 258.417969 194.617188 258.417969 C 219.632813 258.417969 243.621094 248.480469 261.3125 230.792969 C 279 213.105469 288.9375 189.113281 288.9375 164.097656 Z M 288.9375 164.097656 "/>
<path style=" stroke:none;fill-rule:evenodd;fill:rgb(94.998169%,60.974121%,20.324707%);fill-opacity:1;" d="M 287.367188 164.097656 C 287.367188 139.5 277.59375 115.90625 260.199219 98.511719 C 242.804688 81.117188 219.214844 71.347656 194.617188 71.347656 C 170.015625 71.347656 146.425781 81.117188 129.03125 98.511719 C 111.636719 115.90625 101.867188 139.5 101.867188 164.097656 C 101.867188 188.695313 111.636719 212.289063 129.03125 229.679688 C 146.425781 247.074219 170.015625 256.847656 194.617188 256.847656 C 219.214844 256.847656 242.804688 247.074219 260.199219 229.679688 C 277.59375 212.289063 287.367188 188.695313 287.367188 164.097656 Z M 287.367188 164.097656 "/>
<path style=" stroke:none;fill-rule:evenodd;fill:rgb(94.998169%,61.538696%,20.51239%);fill-opacity:1;" d="M 285.792969 164.097656 C 285.792969 139.914063 276.1875 116.722656 259.089844 99.625 C 241.988281 82.523438 218.796875 72.917969 194.617188 72.917969 C 170.433594 72.917969 147.242188 82.523438 130.144531 99.625 C 113.042969 116.722656 103.4375 139.914063 103.4375 164.097656 C 103.4375 188.277344 113.042969 211.46875 130.144531 228.570313 C 147.242188 245.667969 170.433594 255.277344 194.617188 255.277344 C 218.796875 255.277344 241.988281 245.667969 259.089844 228.570313 C 276.1875 211.46875 285.792969 188.277344 285.792969 164.097656 Z M 285.792969 164.097656 "/>
<path style=" stroke:none;fill-rule:evenodd;fill:rgb(94.998169%,62.10022%,20.700073%);fill-opacity:1;" d="M 284.222656 164.097656 C 284.222656 140.332031 274.78125 117.539063 257.976563 100.734375 C 241.171875 83.929688 218.382813 74.492188 194.617188 74.492188 C 170.851563 74.492188 148.058594 83.929688 131.253906 100.734375 C 114.449219 117.539063 105.007813 140.332031 105.007813 164.097656 C 105.007813 187.863281 114.449219 210.652344 131.253906 227.457031 C 148.058594 244.261719 170.851563 253.703125 194.617188 253.703125 C 218.382813 253.703125 241.171875 244.261719 257.976563 227.457031 C 274.78125 210.652344 284.222656 187.863281 284.222656 164.097656 Z M 284.222656 164.097656 "/>
<path style=" stroke:none;fill-rule:evenodd;fill:rgb(94.998169%,62.658691%,20.88623%);fill-opacity:1;" d="M 282.648438 164.097656 C 282.648438 140.75 273.375 118.355469 256.867188 101.847656 C 240.355469 85.335938 217.964844 76.0625 194.617188 76.0625 C 171.269531 76.0625 148.875 85.335938 132.367188 101.847656 C 115.855469 118.355469 106.582031 140.75 106.582031 164.097656 C 106.582031 187.445313 115.855469 209.835938 132.367188 226.347656 C 148.875 242.855469 171.269531 252.132813 194.617188 252.132813 C 217.964844 252.132813 240.355469 242.855469 256.867188 226.347656 C 273.375 209.835938 282.648438 187.445313 282.648438 164.097656 Z M 282.648438 164.097656 "/>
<path style=" stroke:none;fill-rule:evenodd;fill:rgb(94.998169%,63.214111%,21.070862%);fill-opacity:1;" d="M 281.078125 164.097656 C 281.078125 141.164063 271.96875 119.171875 255.753906 102.957031 C 239.539063 86.742188 217.546875 77.632813 194.617188 77.632813 C 171.683594 77.632813 149.691406 86.742188 133.476563 102.957031 C 117.261719 119.171875 108.152344 141.164063 108.152344 164.097656 C 108.152344 187.027344 117.261719 209.019531 133.476563 225.234375 C 149.691406 241.449219 171.683594 250.558594 194.617188 250.558594 C 217.546875 250.558594 239.539063 241.449219 255.753906 225.234375 C 271.96875 209.019531 281.078125 187.027344 281.078125 164.097656 Z M 281.078125 164.097656 "/>
<path style=" stroke:none;fill-rule:evenodd;fill:rgb(94.998169%,63.766479%,21.255493%);fill-opacity:1;" d="M 279.507813 164.097656 C 279.507813 141.582031 270.5625 119.992188 254.640625 104.070313 C 238.722656 88.152344 217.128906 79.207031 194.617188 79.207031 C 172.101563 79.207031 150.507813 88.152344 134.589844 104.070313 C 118.667969 119.992188 109.726563 141.582031 109.726563 164.097656 C 109.726563 186.609375 118.667969 208.203125 134.589844 224.125 C 150.507813 240.042969 172.101563 248.988281 194.617188 248.988281 C 217.128906 248.988281 238.722656 240.042969 254.640625 224.125 C 270.5625 208.203125 279.507813 186.609375 279.507813 164.097656 Z M 279.507813 164.097656 "/>
<path style=" stroke:none;fill-rule:evenodd;fill:rgb(94.998169%,64.315796%,21.438599%);fill-opacity:1;" d="M 277.933594 164.097656 C 277.933594 142 269.15625 120.808594 253.53125 105.183594 C 237.90625 89.558594 216.714844 80.777344 194.617188 80.777344 C 172.519531 80.777344 151.324219 89.558594 135.699219 105.183594 C 120.074219 120.808594 111.296875 142 111.296875 164.097656 C 111.296875 186.195313 120.074219 207.386719 135.699219 223.011719 C 151.324219 238.636719 172.519531 247.414063 194.617188 247.414063 C 216.714844 247.414063 237.90625 238.636719 253.53125 223.011719 C 269.15625 207.386719 277.933594 186.195313 277.933594 164.097656 Z M 277.933594 164.097656 "/>
<path style=" stroke:none;fill-rule:evenodd;fill:rgb(94.998169%,64.860535%,21.620178%);fill-opacity:1;" d="M 276.363281 164.097656 C 276.363281 142.417969 267.75 121.625 252.417969 106.292969 C 237.089844 90.964844 216.296875 82.351563 194.617188 82.351563 C 172.933594 82.351563 152.144531 90.964844 136.8125 106.292969 C 121.480469 121.625 112.871094 142.417969 112.871094 164.097656 C 112.871094 185.777344 121.480469 206.570313 136.8125 221.898438 C 152.144531 237.230469 172.933594 245.84375 194.617188 245.84375 C 216.296875 245.84375 237.089844 237.230469 252.417969 221.898438 C 267.75 206.570313 276.363281 185.777344 276.363281 164.097656 Z M 276.363281 164.097656 "/>
<path style=" stroke:none;fill-rule:evenodd;fill:rgb(94.998169%,65.405273%,21.801758%);fill-opacity:1;" d="M 274.789063 164.097656 C 274.789063 142.832031 266.34375 122.441406 251.308594 107.40625 C 236.273438 92.371094 215.878906 83.921875 194.617188 83.921875 C 173.351563 83.921875 152.960938 92.371094 137.925781 107.40625 C 122.886719 122.441406 114.441406 142.832031 114.441406 164.097656 C 114.441406 185.359375 122.886719 205.753906 137.925781 220.789063 C 152.960938 235.824219 173.351563 244.269531 194.617188 244.269531 C 215.878906 244.269531 236.273438 235.824219 251.308594 220.789063 C 266.34375 205.753906 274.789063 185.359375 274.789063 164.097656 Z M 274.789063 164.097656 "/>
<path style=" stroke:none;fill-rule:evenodd;fill:rgb(94.998169%,65.945435%,21.981812%);fill-opacity:1;" d="M 273.21875 164.097656 C 273.21875 143.25 264.9375 123.257813 250.195313 108.515625 C 235.457031 93.777344 215.460938 85.496094 194.617188 85.496094 C 173.769531 85.496094 153.777344 93.777344 139.035156 108.515625 C 124.296875 123.257813 116.015625 143.25 116.015625 164.097656 C 116.015625 184.945313 124.296875 204.9375 139.035156 219.675781 C 153.777344 234.417969 173.769531 242.699219 194.617188 242.699219 C 215.460938 242.699219 235.457031 234.417969 250.195313 219.675781 C 264.9375 204.9375 273.21875 184.945313 273.21875 164.097656 Z M 273.21875 164.097656 "/>
<path style=" stroke:none;fill-rule:evenodd;fill:rgb(94.998169%,66.482544%,22.160339%);fill-opacity:1;" d="M 271.644531 164.097656 C 271.644531 143.667969 263.53125 124.074219 249.085938 109.628906 C 234.636719 95.183594 215.046875 87.066406 194.617188 87.066406 C 174.1875 87.066406 154.59375 95.183594 140.148438 109.628906 C 125.703125 124.074219 117.585938 143.667969 117.585938 164.097656 C 117.585938 184.527344 125.703125 204.121094 140.148438 218.566406 C 154.59375 233.011719 174.1875 241.128906 194.617188 241.128906 C 215.046875 241.128906 234.636719 233.011719 249.085938 218.566406 C 263.53125 204.121094 271.644531 184.527344 271.644531 164.097656 Z M 271.644531 164.097656 "/>
<path style=" stroke:none;fill-rule:evenodd;fill:rgb(94.998169%,67.018127%,22.338867%);fill-opacity:1;" d="M 270.074219 164.097656 C 270.074219 144.085938 262.125 124.890625 247.972656 110.738281 C 233.820313 96.589844 214.628906 88.640625 194.617188 88.640625 C 174.601563 88.640625 155.410156 96.589844 141.257813 110.738281 C 127.109375 124.890625 119.15625 144.085938 119.15625 164.097656 C 119.15625 184.109375 127.109375 203.304688 141.257813 217.453125 C 155.410156 231.605469 174.601563 239.554688 194.617188 239.554688 C 214.628906 239.554688 233.820313 231.605469 247.972656 217.453125 C 262.125 203.304688 270.074219 184.109375 270.074219 164.097656 Z M 270.074219 164.097656 "/>
<path style=" stroke:none;fill-rule:evenodd;fill:rgb(94.998169%,67.550659%,22.517395%);fill-opacity:1;" d="M 268.5 164.097656 C 268.5 144.5 260.71875 125.707031 246.859375 111.851563 C 233.003906 97.996094 214.210938 90.210938 194.617188 90.210938 C 175.019531 90.210938 156.226563 97.996094 142.371094 111.851563 C 128.515625 125.707031 120.730469 144.5 120.730469 164.097656 C 120.730469 183.691406 128.515625 202.484375 142.371094 216.34375 C 156.226563 230.199219 175.019531 237.984375 194.617188 237.984375 C 214.210938 237.984375 233.003906 230.199219 246.859375 216.34375 C 260.71875 202.484375 268.5 183.691406 268.5 164.097656 Z M 268.5 164.097656 "/>
<path style=" stroke:none;fill-rule:evenodd;fill:rgb(94.998169%,68.081665%,22.694397%);fill-opacity:1;" d="M 266.929688 164.097656 C 266.929688 144.917969 259.3125 126.523438 245.75 112.964844 C 232.1875 99.402344 213.792969 91.78125 194.617188 91.78125 C 175.4375 91.78125 157.042969 99.402344 143.480469 112.964844 C 129.921875 126.523438 122.300781 144.917969 122.300781 164.097656 C 122.300781 183.277344 129.921875 201.667969 143.480469 215.230469 C 157.042969 228.792969 175.4375 236.410156 194.617188 236.410156 C 213.792969 236.410156 232.1875 228.792969 245.75 215.230469 C 259.3125 201.667969 266.929688 183.277344 266.929688 164.097656 Z M 266.929688 164.097656 "/>
<path style=" stroke:none;fill-rule:evenodd;fill:rgb(94.998169%,68.608093%,22.869873%);fill-opacity:1;" d="M 265.359375 164.097656 C 265.359375 145.335938 257.90625 127.339844 244.636719 114.074219 C 231.371094 100.808594 213.378906 93.355469 194.617188 93.355469 C 175.855469 93.355469 157.859375 100.808594 144.59375 114.074219 C 131.328125 127.339844 123.875 145.335938 123.875 164.097656 C 123.875 182.859375 131.328125 200.851563 144.59375 214.117188 C 157.859375 227.386719 175.855469 234.839844 194.617188 234.839844 C 213.378906 234.839844 231.371094 227.386719 244.636719 214.117188 C 257.90625 200.851563 265.359375 182.859375 265.359375 164.097656 Z M 265.359375 164.097656 "/>
<path style=" stroke:none;fill-rule:evenodd;fill:rgb(94.998169%,69.134521%,23.045349%);fill-opacity:1;" d="M 263.785156 164.097656 C 263.785156 145.753906 256.5 128.160156 243.527344 115.1875 C 230.554688 102.214844 212.960938 94.925781 194.617188 94.925781 C 176.269531 94.925781 158.675781 102.214844 145.707031 115.1875 C 132.734375 128.160156 125.445313 145.753906 125.445313 164.097656 C 125.445313 182.441406 132.734375 200.035156 145.707031 213.007813 C 158.675781 225.980469 176.269531 233.265625 194.617188 233.265625 C 212.960938 233.265625 230.554688 225.980469 243.527344 213.007813 C 256.5 200.035156 263.785156 182.441406 263.785156 164.097656 Z M 263.785156 164.097656 "/>
<path style=" stroke:none;fill-rule:evenodd;fill:rgb(94.998169%,69.656372%,23.219299%);fill-opacity:1;" d="M 262.214844 164.097656 C 262.214844 146.167969 255.089844 128.976563 242.414063 116.296875 C 229.738281 103.621094 212.542969 96.5 194.617188 96.5 C 176.6875 96.5 159.492188 103.621094 146.816406 116.296875 C 134.140625 128.976563 127.019531 146.167969 127.019531 164.097656 C 127.019531 182.023438 134.140625 199.21875 146.816406 211.894531 C 159.492188 224.574219 176.6875 231.695313 194.617188 231.695313 C 212.542969 231.695313 229.738281 224.574219 242.414063 211.894531 C 255.089844 199.21875 262.214844 182.023438 262.214844 164.097656 Z M 262.214844 164.097656 "/>
<path style=" stroke:none;fill-rule:evenodd;fill:rgb(94.998169%,70.178223%,23.39325%);fill-opacity:1;" d="M 260.640625 164.097656 C 260.640625 146.585938 253.683594 129.792969 241.304688 117.410156 C 228.921875 105.027344 212.125 98.070313 194.617188 98.070313 C 177.105469 98.070313 160.3125 105.027344 147.929688 117.410156 C 135.546875 129.792969 128.589844 146.585938 128.589844 164.097656 C 128.589844 181.609375 135.546875 198.402344 147.929688 210.785156 C 160.3125 223.167969 177.105469 230.121094 194.617188 230.121094 C 212.125 230.121094 228.921875 223.167969 241.304688 210.785156 C 253.683594 198.402344 260.640625 181.609375 260.640625 164.097656 Z M 260.640625 164.097656 "/>
<path style=" stroke:none;fill-rule:evenodd;fill:rgb(94.998169%,70.695496%,23.565674%);fill-opacity:1;" d="M 259.070313 164.097656 C 259.070313 147.003906 252.277344 130.609375 240.191406 118.519531 C 228.105469 106.433594 211.710938 99.644531 194.617188 99.644531 C 177.523438 99.644531 161.128906 106.433594 149.039063 118.519531 C 136.953125 130.609375 130.160156 147.003906 130.160156 164.097656 C 130.160156 181.191406 136.953125 197.585938 149.039063 209.671875 C 161.128906 221.761719 177.523438 228.550781 194.617188 228.550781 C 211.710938 228.550781 228.105469 221.761719 240.191406 209.671875 C 252.277344 197.585938 259.070313 181.191406 259.070313 164.097656 Z M 259.070313 164.097656 "/>
<path style=" stroke:none;fill-rule:evenodd;fill:rgb(94.998169%,71.212769%,23.738098%);fill-opacity:1;" d="M 257.496094 164.097656 C 257.496094 147.417969 250.871094 131.425781 239.078125 119.632813 C 227.289063 107.839844 211.292969 101.214844 194.617188 101.214844 C 177.9375 101.214844 161.945313 107.839844 150.152344 119.632813 C 138.359375 131.425781 131.734375 147.417969 131.734375 164.097656 C 131.734375 180.773438 138.359375 196.769531 150.152344 208.5625 C 161.945313 220.355469 177.9375 226.980469 194.617188 226.980469 C 211.292969 226.980469 227.289063 220.355469 239.078125 208.5625 C 250.871094 196.769531 257.496094 180.773438 257.496094 164.097656 Z M 257.496094 164.097656 "/>
<path style=" stroke:none;fill-rule:evenodd;fill:rgb(94.998169%,71.72699%,23.908997%);fill-opacity:1;" d="M 255.925781 164.097656 C 255.925781 147.835938 249.464844 132.242188 237.96875 120.746094 C 226.46875 109.246094 210.875 102.789063 194.617188 102.789063 C 178.355469 102.789063 162.761719 109.246094 151.261719 120.746094 C 139.765625 132.242188 133.304688 147.835938 133.304688 164.097656 C 133.304688 180.355469 139.765625 195.953125 151.261719 207.449219 C 162.761719 218.945313 178.355469 225.40625 194.617188 225.40625 C 210.875 225.40625 226.46875 218.945313 237.96875 207.449219 C 249.464844 195.953125 255.925781 180.355469 255.925781 164.097656 Z M 255.925781 164.097656 "/>
<path style=" stroke:none;fill-rule:evenodd;fill:rgb(94.998169%,72.238159%,24.079895%);fill-opacity:1;" d="M 254.351563 164.097656 C 254.351563 148.253906 248.058594 133.058594 236.855469 121.855469 C 225.652344 110.652344 210.460938 104.359375 194.617188 104.359375 C 178.773438 104.359375 163.578125 110.652344 152.375 121.855469 C 141.171875 133.058594 134.878906 148.253906 134.878906 164.097656 C 134.878906 179.941406 141.171875 195.136719 152.375 206.335938 C 163.578125 217.539063 178.773438 223.835938 194.617188 223.835938 C 210.460938 223.835938 225.652344 217.539063 236.855469 206.335938 C 248.058594 195.136719 254.351563 179.941406 254.351563 164.097656 Z M 254.351563 164.097656 "/>
<path style=" stroke:none;fill-rule:evenodd;fill:rgb(94.998169%,72.747803%,24.249268%);fill-opacity:1;" d="M 252.78125 164.097656 C 252.78125 148.671875 246.652344 133.875 235.746094 122.96875 C 224.835938 112.058594 210.042969 105.929688 194.617188 105.929688 C 179.1875 105.929688 164.394531 112.058594 153.488281 122.96875 C 142.578125 133.875 136.449219 148.671875 136.449219 164.097656 C 136.449219 179.523438 142.578125 194.316406 153.488281 205.226563 C 164.394531 216.132813 179.1875 222.261719 194.617188 222.261719 C 210.042969 222.261719 224.835938 216.132813 235.746094 205.226563 C 246.652344 194.316406 252.78125 179.523438 252.78125 164.097656 Z M 252.78125 164.097656 "/>
<path style=" stroke:none;fill-rule:evenodd;fill:rgb(94.998169%,73.25592%,24.41864%);fill-opacity:1;" d="M 251.210938 164.097656 C 251.210938 149.085938 245.246094 134.691406 234.632813 124.078125 C 224.019531 113.464844 209.625 107.503906 194.617188 107.503906 C 179.605469 107.503906 165.210938 113.464844 154.597656 124.078125 C 143.984375 134.691406 138.023438 149.085938 138.023438 164.097656 C 138.023438 179.105469 143.984375 193.5 154.597656 204.113281 C 165.210938 214.726563 179.605469 220.691406 194.617188 220.691406 C 209.625 220.691406 224.019531 214.726563 234.632813 204.113281 C 245.246094 193.5 251.210938 179.105469 251.210938 164.097656 Z M 251.210938 164.097656 "/>
<path style=" stroke:none;fill-rule:evenodd;fill:rgb(94.998169%,73.762512%,24.588013%);fill-opacity:1;" d="M 249.636719 164.097656 C 249.636719 149.503906 243.839844 135.507813 233.523438 125.191406 C 223.203125 114.871094 209.207031 109.074219 194.617188 109.074219 C 180.023438 109.074219 166.027344 114.871094 155.710938 125.191406 C 145.390625 135.507813 139.59375 149.503906 139.59375 164.097656 C 139.59375 178.691406 145.390625 192.683594 155.710938 203.003906 C 166.027344 213.320313 180.023438 219.117188 194.617188 219.117188 C 209.207031 219.117188 223.203125 213.320313 233.523438 203.003906 C 243.839844 192.683594 249.636719 178.691406 249.636719 164.097656 Z M 249.636719 164.097656 "/>
<path style=" stroke:none;fill-rule:evenodd;fill:rgb(94.998169%,74.266052%,24.755859%);fill-opacity:1;" d="M 248.066406 164.097656 C 248.066406 149.921875 242.433594 136.328125 232.410156 126.300781 C 222.386719 116.277344 208.792969 110.648438 194.617188 110.648438 C 180.441406 110.648438 166.84375 116.277344 156.820313 126.300781 C 146.796875 136.328125 141.167969 149.921875 141.167969 164.097656 C 141.167969 178.273438 146.796875 191.867188 156.820313 201.890625 C 166.84375 211.914063 180.441406 217.546875 194.617188 217.546875 C 208.792969 217.546875 222.386719 211.914063 232.410156 201.890625 C 242.433594 191.867188 248.066406 178.273438 248.066406 164.097656 Z M 248.066406 164.097656 "/>
<path style=" stroke:none;fill-rule:evenodd;fill:rgb(94.998169%,74.768066%,24.92218%);fill-opacity:1;" d="M 246.492188 164.097656 C 246.492188 150.339844 241.027344 137.144531 231.296875 127.414063 C 221.570313 117.683594 208.375 112.21875 194.617188 112.21875 C 180.855469 112.21875 167.660156 117.683594 157.933594 127.414063 C 148.203125 137.144531 142.738281 150.339844 142.738281 164.097656 C 142.738281 177.855469 148.203125 191.050781 157.933594 200.78125 C 167.660156 210.507813 180.855469 215.972656 194.617188 215.972656 C 208.375 215.972656 221.570313 210.507813 231.296875 200.78125 C 241.027344 191.050781 246.492188 177.855469 246.492188 164.097656 Z M 246.492188 164.097656 "/>
<path style=" stroke:none;fill-rule:evenodd;fill:rgb(94.998169%,75.268555%,25.090027%);fill-opacity:1;" d="M 244.921875 164.097656 C 244.921875 150.753906 239.621094 137.960938 230.1875 128.527344 C 220.753906 119.089844 207.957031 113.792969 194.617188 113.792969 C 181.273438 113.792969 168.480469 119.089844 159.042969 128.527344 C 149.609375 137.960938 144.308594 150.753906 144.308594 164.097656 C 144.308594 177.4375 149.609375 190.234375 159.042969 199.667969 C 168.480469 209.101563 181.273438 214.402344 194.617188 214.402344 C 207.957031 214.402344 220.753906 209.101563 230.1875 199.667969 C 239.621094 190.234375 244.921875 177.4375 244.921875 164.097656 Z M 244.921875 164.097656 "/>
<path style=" stroke:none;fill-rule:evenodd;fill:rgb(94.998169%,75.767517%,25.256348%);fill-opacity:1;" d="M 243.347656 164.097656 C 243.347656 151.171875 238.214844 138.777344 229.074219 129.636719 C 219.9375 120.5 207.539063 115.363281 194.617188 115.363281 C 181.691406 115.363281 169.296875 120.5 160.15625 129.636719 C 151.015625 138.777344 145.882813 151.171875 145.882813 164.097656 C 145.882813 177.023438 151.015625 189.417969 160.15625 198.558594 C 169.296875 207.695313 181.691406 212.832031 194.617188 212.832031 C 207.539063 212.832031 219.9375 207.695313 229.074219 198.558594 C 238.214844 189.417969 243.347656 177.023438 243.347656 164.097656 Z M 243.347656 164.097656 "/>
<path style=" stroke:none;fill-rule:evenodd;fill:rgb(94.998169%,76.263428%,25.421143%);fill-opacity:1;" d="M 241.777344 164.097656 C 241.777344 151.589844 236.808594 139.59375 227.964844 130.75 C 219.121094 121.90625 207.125 116.9375 194.617188 116.9375 C 182.109375 116.9375 170.113281 121.90625 161.269531 130.75 C 152.421875 139.59375 147.453125 151.589844 147.453125 164.097656 C 147.453125 176.605469 152.421875 188.601563 161.269531 197.445313 C 170.113281 206.289063 182.109375 211.257813 194.617188 211.257813 C 207.125 211.257813 219.121094 206.289063 227.964844 197.445313 C 236.808594 188.601563 241.777344 176.605469 241.777344 164.097656 Z M 241.777344 164.097656 "/>
<path style=" stroke:none;fill-rule:evenodd;fill:rgb(94.998169%,76.757813%,25.585938%);fill-opacity:1;" d="M 240.203125 164.097656 C 240.203125 152.007813 235.402344 140.410156 226.851563 131.859375 C 218.300781 123.3125 206.707031 118.507813 194.617188 118.507813 C 182.523438 118.507813 170.929688 123.3125 162.378906 131.859375 C 153.828125 140.410156 149.027344 152.007813 149.027344 164.097656 C 149.027344 176.1875 153.828125 187.785156 162.378906 196.332031 C 170.929688 204.882813 182.523438 209.6875 194.617188 209.6875 C 206.707031 209.6875 218.300781 204.882813 226.851563 196.332031 C 235.402344 187.785156 240.203125 176.1875 240.203125 164.097656 Z M 240.203125 164.097656 "/>
<path style=" stroke:none;fill-rule:evenodd;fill:rgb(94.998169%,77.250671%,25.750732%);fill-opacity:1;" d="M 238.632813 164.097656 C 238.632813 152.421875 233.996094 141.226563 225.742188 132.972656 C 217.484375 124.71875 206.289063 120.078125 194.617188 120.078125 C 182.941406 120.078125 171.746094 124.71875 163.492188 132.972656 C 155.234375 141.226563 150.597656 152.421875 150.597656 164.097656 C 150.597656 175.769531 155.234375 186.96875 163.492188 195.222656 C 171.746094 203.476563 182.941406 208.113281 194.617188 208.113281 C 206.289063 208.113281 217.484375 203.476563 225.742188 195.222656 C 233.996094 186.96875 238.632813 175.769531 238.632813 164.097656 Z M 238.632813 164.097656 "/>
<path style=" stroke:none;fill-rule:evenodd;fill:rgb(94.998169%,77.742004%,25.914001%);fill-opacity:1;" d="M 237.0625 164.097656 C 237.0625 152.839844 232.589844 142.042969 224.628906 134.082031 C 216.667969 126.125 205.871094 121.652344 194.617188 121.652344 C 183.359375 121.652344 172.5625 126.125 164.601563 134.082031 C 156.640625 142.042969 152.171875 152.839844 152.171875 164.097656 C 152.171875 175.355469 156.640625 186.148438 164.601563 194.109375 C 172.5625 202.070313 183.359375 206.542969 194.617188 206.542969 C 205.871094 206.542969 216.667969 202.070313 224.628906 194.109375 C 232.589844 186.148438 237.0625 175.355469 237.0625 164.097656 Z M 237.0625 164.097656 "/>
<path style=" stroke:none;fill-rule:evenodd;fill:rgb(94.998169%,78.231812%,26.077271%);fill-opacity:1;" d="M 235.488281 164.097656 C 235.488281 153.257813 231.183594 142.859375 223.515625 135.195313 C 215.851563 127.53125 205.457031 123.222656 194.617188 123.222656 C 183.777344 123.222656 173.378906 127.53125 165.714844 135.195313 C 158.050781 142.859375 153.742188 153.257813 153.742188 164.097656 C 153.742188 174.9375 158.050781 185.332031 165.714844 193 C 173.378906 200.664063 183.777344 204.96875 194.617188 204.96875 C 205.457031 204.96875 215.851563 200.664063 223.515625 193 C 231.183594 185.332031 235.488281 174.9375 235.488281 164.097656 Z M 235.488281 164.097656 "/>
<path style=" stroke:none;fill-rule:evenodd;fill:rgb(94.998169%,78.720093%,26.24054%);fill-opacity:1;" d="M 233.917969 164.097656 C 233.917969 153.671875 229.777344 143.675781 222.40625 136.308594 C 215.035156 128.9375 205.039063 124.796875 194.617188 124.796875 C 184.191406 124.796875 174.195313 128.9375 166.824219 136.308594 C 159.457031 143.675781 155.316406 153.671875 155.316406 164.097656 C 155.316406 174.519531 159.457031 184.515625 166.824219 191.886719 C 174.195313 199.257813 184.191406 203.398438 194.617188 203.398438 C 205.039063 203.398438 215.035156 199.257813 222.40625 191.886719 C 229.777344 184.515625 233.917969 174.519531 233.917969 164.097656 Z M 233.917969 164.097656 "/>
<path style=" stroke:none;fill-rule:evenodd;fill:rgb(94.998169%,79.206848%,26.402283%);fill-opacity:1;" d="M 232.34375 164.097656 C 232.34375 154.089844 228.371094 144.492188 221.292969 137.417969 C 214.21875 130.34375 204.621094 126.367188 194.617188 126.367188 C 184.609375 126.367188 175.011719 130.34375 167.9375 137.417969 C 160.863281 144.492188 156.886719 154.089844 156.886719 164.097656 C 156.886719 174.101563 160.863281 183.699219 167.9375 190.777344 C 175.011719 197.851563 184.609375 201.824219 194.617188 201.824219 C 204.621094 201.824219 214.21875 197.851563 221.292969 190.777344 C 228.371094 183.699219 232.34375 174.101563 232.34375 164.097656 Z M 232.34375 164.097656 "/>
<path style=" stroke:none;fill-rule:evenodd;fill:rgb(94.998169%,79.692078%,26.564026%);fill-opacity:1;" d="M 230.773438 164.097656 C 230.773438 154.507813 226.964844 145.3125 220.183594 138.53125 C 213.402344 131.75 204.207031 127.941406 194.617188 127.941406 C 185.027344 127.941406 175.828125 131.75 169.050781 138.53125 C 162.269531 145.3125 158.457031 154.507813 158.457031 164.097656 C 158.457031 173.6875 162.269531 182.882813 169.050781 189.664063 C 175.828125 196.445313 185.027344 200.253906 194.617188 200.253906 C 204.207031 200.253906 213.402344 196.445313 220.183594 189.664063 C 226.964844 182.882813 230.773438 173.6875 230.773438 164.097656 Z M 230.773438 164.097656 "/>
<path style=" stroke:none;fill-rule:evenodd;fill:rgb(94.998169%,80.174255%,26.724243%);fill-opacity:1;" d="M 229.199219 164.097656 C 229.199219 154.925781 225.558594 146.128906 219.070313 139.640625 C 212.585938 133.15625 203.789063 129.511719 194.617188 129.511719 C 185.441406 129.511719 176.648438 133.15625 170.160156 139.640625 C 163.675781 146.128906 160.03125 154.925781 160.03125 164.097656 C 160.03125 173.269531 163.675781 182.066406 170.160156 188.550781 C 176.648438 195.039063 185.441406 198.683594 194.617188 198.683594 C 203.789063 198.683594 212.585938 195.039063 219.070313 188.550781 C 225.558594 182.066406 229.199219 173.269531 229.199219 164.097656 Z M 229.199219 164.097656 "/>
<path style=" stroke:none;fill-rule:evenodd;fill:rgb(94.998169%,80.656433%,26.885986%);fill-opacity:1;" d="M 227.628906 164.097656 C 227.628906 155.339844 224.152344 146.945313 217.960938 140.753906 C 211.769531 134.5625 203.371094 131.085938 194.617188 131.085938 C 185.859375 131.085938 177.464844 134.5625 171.273438 140.753906 C 165.082031 146.945313 161.601563 155.339844 161.601563 164.097656 C 161.601563 172.851563 165.082031 181.25 171.273438 187.441406 C 177.464844 193.632813 185.859375 197.109375 194.617188 197.109375 C 203.371094 197.109375 211.769531 193.632813 217.960938 187.441406 C 224.152344 181.25 227.628906 172.851563 227.628906 164.097656 Z M 227.628906 164.097656 "/>
<path style=" stroke:none;fill-rule:evenodd;fill:rgb(94.998169%,81.137085%,27.046204%);fill-opacity:1;" d="M 226.054688 164.097656 C 226.054688 155.757813 222.742188 147.761719 216.847656 141.863281 C 210.953125 135.96875 202.953125 132.65625 194.617188 132.65625 C 186.277344 132.65625 178.28125 135.96875 172.382813 141.863281 C 166.488281 147.761719 163.175781 155.757813 163.175781 164.097656 C 163.175781 172.4375 166.488281 180.433594 172.382813 186.328125 C 178.28125 192.226563 186.277344 195.539063 194.617188 195.539063 C 202.953125 195.539063 210.953125 192.226563 216.847656 186.328125 C 222.742188 180.433594 226.054688 172.4375 226.054688 164.097656 Z M 226.054688 164.097656 "/>
<path style=" stroke:none;fill-rule:evenodd;fill:rgb(94.998169%,81.614685%,27.204895%);fill-opacity:1;" d="M 224.484375 164.097656 C 224.484375 156.175781 221.335938 148.578125 215.734375 142.976563 C 210.132813 137.375 202.539063 134.226563 194.617188 134.226563 C 186.695313 134.226563 179.097656 137.375 173.496094 142.976563 C 167.894531 148.578125 164.746094 156.175781 164.746094 164.097656 C 164.746094 172.019531 167.894531 179.617188 173.496094 185.21875 C 179.097656 190.820313 186.695313 193.964844 194.617188 193.964844 C 202.539063 193.964844 210.132813 190.820313 215.734375 185.21875 C 221.335938 179.617188 224.484375 172.019531 224.484375 164.097656 Z M 224.484375 164.097656 "/>
<path style=" stroke:none;fill-rule:evenodd;fill:rgb(94.998169%,82.092285%,27.363586%);fill-opacity:1;" d="M 222.914063 164.097656 C 222.914063 156.59375 219.929688 149.394531 214.625 144.089844 C 209.316406 138.78125 202.121094 135.800781 194.617188 135.800781 C 187.109375 135.800781 179.914063 138.78125 174.605469 144.089844 C 169.300781 149.394531 166.320313 156.59375 166.320313 164.097656 C 166.320313 171.601563 169.300781 178.800781 174.605469 184.105469 C 179.914063 189.414063 187.109375 192.394531 194.617188 192.394531 C 202.121094 192.394531 209.316406 189.414063 214.625 184.105469 C 219.929688 178.800781 222.914063 171.601563 222.914063 164.097656 Z M 222.914063 164.097656 "/>
<path style=" stroke:none;fill-rule:evenodd;fill:rgb(94.998169%,82.568359%,27.522278%);fill-opacity:1;" d="M 221.339844 164.097656 C 221.339844 157.007813 218.523438 150.210938 213.511719 145.199219 C 208.5 140.1875 201.703125 137.371094 194.617188 137.371094 C 187.527344 137.371094 180.730469 140.1875 175.71875 145.199219 C 170.707031 150.210938 167.890625 157.007813 167.890625 164.097656 C 167.890625 171.183594 170.707031 177.980469 175.71875 182.996094 C 180.730469 188.007813 187.527344 190.820313 194.617188 190.820313 C 201.703125 190.820313 208.5 188.007813 213.511719 182.996094 C 218.523438 177.980469 221.339844 171.183594 221.339844 164.097656 Z M 221.339844 164.097656 "/>
<path style=" stroke:none;fill-rule:evenodd;fill:rgb(94.998169%,83.042908%,27.680969%);fill-opacity:1;" d="M 219.769531 164.097656 C 219.769531 157.425781 217.117188 151.027344 212.402344 146.3125 C 207.683594 141.59375 201.285156 138.945313 194.617188 138.945313 C 187.945313 138.945313 181.546875 141.59375 176.832031 146.3125 C 172.113281 151.027344 169.464844 157.425781 169.464844 164.097656 C 169.464844 170.769531 172.113281 177.164063 176.832031 181.882813 C 181.546875 186.601563 187.945313 189.25 194.617188 189.25 C 201.285156 189.25 207.683594 186.601563 212.402344 181.882813 C 217.117188 177.164063 219.769531 170.769531 219.769531 164.097656 Z M 219.769531 164.097656 "/>
<path style=" stroke:none;fill-rule:evenodd;fill:rgb(94.998169%,83.51593%,27.838135%);fill-opacity:1;" d="M 218.195313 164.097656 C 218.195313 157.84375 215.710938 151.84375 211.289063 147.421875 C 206.867188 143 200.871094 140.515625 194.617188 140.515625 C 188.363281 140.515625 182.363281 143 177.941406 147.421875 C 173.519531 151.84375 171.035156 157.84375 171.035156 164.097656 C 171.035156 170.351563 173.519531 176.347656 177.941406 180.769531 C 182.363281 185.191406 188.363281 187.675781 194.617188 187.675781 C 200.871094 187.675781 206.867188 185.191406 211.289063 180.769531 C 215.710938 176.347656 218.195313 170.351563 218.195313 164.097656 Z M 218.195313 164.097656 "/>
<path style=" stroke:none;fill-rule:evenodd;fill:rgb(94.998169%,83.987427%,27.9953%);fill-opacity:1;" d="M 216.625 164.097656 C 216.625 158.261719 214.304688 152.660156 210.179688 148.535156 C 206.050781 144.40625 200.453125 142.089844 194.617188 142.089844 C 188.777344 142.089844 183.179688 144.40625 179.054688 148.535156 C 174.925781 152.660156 172.605469 158.261719 172.605469 164.097656 C 172.605469 169.933594 174.925781 175.53125 179.054688 179.660156 C 183.179688 183.785156 188.777344 186.105469 194.617188 186.105469 C 200.453125 186.105469 206.050781 183.785156 210.179688 179.660156 C 214.304688 175.53125 216.625 169.933594 216.625 164.097656 Z M 216.625 164.097656 "/>
<path style=" stroke:none;fill-rule:evenodd;fill:rgb(94.998169%,84.457397%,28.152466%);fill-opacity:1;" d="M 215.050781 164.097656 C 215.050781 158.675781 212.898438 153.480469 209.066406 149.644531 C 205.234375 145.8125 200.035156 143.660156 194.617188 143.660156 C 189.195313 143.660156 183.996094 145.8125 180.164063 149.644531 C 176.332031 153.480469 174.179688 158.675781 174.179688 164.097656 C 174.179688 169.515625 176.332031 174.714844 180.164063 178.546875 C 183.996094 182.378906 189.195313 184.535156 194.617188 184.535156 C 200.035156 184.535156 205.234375 182.378906 209.066406 178.546875 C 212.898438 174.714844 215.050781 169.515625 215.050781 164.097656 Z M 215.050781 164.097656 "/>
<path style=" stroke:none;fill-rule:evenodd;fill:rgb(94.998169%,84.925842%,28.308105%);fill-opacity:1;" d="M 213.480469 164.097656 C 213.480469 159.09375 211.492188 154.296875 207.953125 150.757813 C 204.417969 147.21875 199.617188 145.234375 194.617188 145.234375 C 189.613281 145.234375 184.8125 147.21875 181.277344 150.757813 C 177.738281 154.296875 175.75 159.09375 175.75 164.097656 C 175.75 169.101563 177.738281 173.898438 181.277344 177.4375 C 184.8125 180.972656 189.613281 182.960938 194.617188 182.960938 C 199.617188 182.960938 204.417969 180.972656 207.953125 177.4375 C 211.492188 173.898438 213.480469 169.101563 213.480469 164.097656 Z M 213.480469 164.097656 "/>
<path style=" stroke:none;fill-rule:evenodd;fill:rgb(94.998169%,85.392761%,28.463745%);fill-opacity:1;" d="M 211.910156 164.097656 C 211.910156 159.511719 210.085938 155.113281 206.84375 151.871094 C 203.601563 148.625 199.203125 146.804688 194.617188 146.804688 C 190.03125 146.804688 185.632813 148.625 182.386719 151.871094 C 179.144531 155.113281 177.324219 159.511719 177.324219 164.097656 C 177.324219 168.683594 179.144531 173.082031 182.386719 176.324219 C 185.632813 179.566406 190.03125 181.390625 194.617188 181.390625 C 199.203125 181.390625 203.601563 179.566406 206.84375 176.324219 C 210.085938 173.082031 211.910156 168.683594 211.910156 164.097656 Z M 211.910156 164.097656 "/>
<path style=" stroke:none;fill-rule:evenodd;fill:rgb(94.998169%,85.85968%,28.619385%);fill-opacity:1;" d="M 210.335938 164.097656 C 210.335938 159.925781 208.679688 155.929688 205.730469 152.980469 C 202.785156 150.03125 198.785156 148.375 194.617188 148.375 C 190.445313 148.375 186.449219 150.03125 183.5 152.980469 C 180.550781 155.929688 178.894531 159.925781 178.894531 164.097656 C 178.894531 168.265625 180.550781 172.265625 183.5 175.214844 C 186.449219 178.160156 190.445313 179.816406 194.617188 179.816406 C 198.785156 179.816406 202.785156 178.160156 205.730469 175.214844 C 208.679688 172.265625 210.335938 168.265625 210.335938 164.097656 Z M 210.335938 164.097656 "/>
<path style=" stroke:none;fill-rule:evenodd;fill:rgb(94.998169%,86.323547%,28.775024%);fill-opacity:1;" d="M 208.765625 164.097656 C 208.765625 160.34375 207.273438 156.746094 204.621094 154.09375 C 201.96875 151.4375 198.367188 149.949219 194.617188 149.949219 C 190.863281 149.949219 187.265625 151.4375 184.613281 154.09375 C 181.957031 156.746094 180.46875 160.34375 180.46875 164.097656 C 180.46875 167.847656 181.957031 171.449219 184.613281 174.101563 C 187.265625 176.753906 190.863281 178.246094 194.617188 178.246094 C 198.367188 178.246094 201.96875 176.753906 204.621094 174.101563 C 207.273438 171.449219 208.765625 167.847656 208.765625 164.097656 Z M 208.765625 164.097656 "/>
<path style=" stroke:none;fill-rule:evenodd;fill:rgb(94.998169%,86.787415%,28.929138%);fill-opacity:1;" d="M 207.191406 164.097656 C 207.191406 160.761719 205.867188 157.5625 203.507813 155.203125 C 201.148438 152.84375 197.953125 151.519531 194.617188 151.519531 C 191.28125 151.519531 188.082031 152.84375 185.722656 155.203125 C 183.363281 157.5625 182.039063 160.761719 182.039063 164.097656 C 182.039063 167.433594 183.363281 170.632813 185.722656 172.988281 C 188.082031 175.347656 191.28125 176.671875 194.617188 176.671875 C 197.953125 176.671875 201.148438 175.347656 203.507813 172.988281 C 205.867188 170.632813 207.191406 167.433594 207.191406 164.097656 Z M 207.191406 164.097656 "/>
<path style=" stroke:none;fill-rule:evenodd;fill:rgb(94.998169%,87.249756%,29.083252%);fill-opacity:1;" d="M 205.621094 164.097656 C 205.621094 161.179688 204.460938 158.378906 202.398438 156.316406 C 200.332031 154.253906 197.535156 153.09375 194.617188 153.09375 C 191.699219 153.09375 188.898438 154.253906 186.835938 156.316406 C 184.769531 158.378906 183.613281 161.179688 183.613281 164.097656 C 183.613281 167.015625 184.769531 169.816406 186.835938 171.878906 C 188.898438 173.941406 191.699219 175.101563 194.617188 175.101563 C 197.535156 175.101563 200.332031 173.941406 202.398438 171.878906 C 204.460938 169.816406 205.621094 167.015625 205.621094 164.097656 Z M 205.621094 164.097656 "/>
<path style=" stroke:none;fill-rule:evenodd;fill:rgb(94.998169%,87.710571%,29.237366%);fill-opacity:1;" d="M 204.046875 164.097656 C 204.046875 161.59375 203.054688 159.195313 201.285156 157.425781 C 199.515625 155.660156 197.117188 154.664063 194.617188 154.664063 C 192.113281 154.664063 189.714844 155.660156 187.945313 157.425781 C 186.175781 159.195313 185.183594 161.59375 185.183594 164.097656 C 185.183594 166.597656 186.175781 168.996094 187.945313 170.765625 C 189.714844 172.535156 192.113281 173.527344 194.617188 173.527344 C 197.117188 173.527344 199.515625 172.535156 201.285156 170.765625 C 203.054688 168.996094 204.046875 166.597656 204.046875 164.097656 Z M 204.046875 164.097656 "/>
<path style=" stroke:none;fill-rule:evenodd;fill:rgb(94.998169%,88.171387%,29.389954%);fill-opacity:1;" d="M 202.476563 164.097656 C 202.476563 162.011719 201.648438 160.011719 200.171875 158.539063 C 198.699219 157.066406 196.699219 156.238281 194.617188 156.238281 C 192.53125 156.238281 190.53125 157.066406 189.058594 158.539063 C 187.582031 160.011719 186.753906 162.011719 186.753906 164.097656 C 186.753906 166.183594 187.582031 168.179688 189.058594 169.65625 C 190.53125 171.128906 192.53125 171.957031 194.617188 171.957031 C 196.699219 171.957031 198.699219 171.128906 200.171875 169.65625 C 201.648438 168.179688 202.476563 166.183594 202.476563 164.097656 Z M 202.476563 164.097656 "/>
<path style=" stroke:none;fill-rule:evenodd;fill:rgb(94.998169%,88.62915%,29.542542%);fill-opacity:1;" d="M 200.902344 164.097656 C 200.902344 162.429688 200.242188 160.828125 199.0625 159.652344 C 197.882813 158.472656 196.285156 157.808594 194.617188 157.808594 C 192.949219 157.808594 191.347656 158.472656 190.167969 159.652344 C 188.988281 160.828125 188.328125 162.429688 188.328125 164.097656 C 188.328125 165.765625 188.988281 167.363281 190.167969 168.542969 C 191.347656 169.722656 192.949219 170.386719 194.617188 170.386719 C 196.285156 170.386719 197.882813 169.722656 199.0625 168.542969 C 200.242188 167.363281 200.902344 165.765625 200.902344 164.097656 Z M 200.902344 164.097656 "/>
<path style=" stroke:none;fill-rule:evenodd;fill:rgb(94.998169%,89.086914%,29.695129%);fill-opacity:1;" d="M 199.332031 164.097656 C 199.332031 162.847656 198.835938 161.648438 197.949219 160.761719 C 197.066406 159.878906 195.867188 159.382813 194.617188 159.382813 C 193.363281 159.382813 192.164063 159.878906 191.28125 160.761719 C 190.398438 161.648438 189.898438 162.847656 189.898438 164.097656 C 189.898438 165.347656 190.398438 166.546875 191.28125 167.433594 C 192.164063 168.316406 193.363281 168.8125 194.617188 168.8125 C 195.867188 168.8125 197.066406 168.316406 197.949219 167.433594 C 198.835938 166.546875 199.332031 165.347656 199.332031 164.097656 Z M 199.332031 164.097656 "/>
<path style=" stroke:none;fill-rule:evenodd;fill:rgb(94.998169%,89.543152%,29.847717%);fill-opacity:1;" d="M 197.761719 164.097656 C 197.761719 163.261719 197.429688 162.464844 196.839844 161.875 C 196.25 161.285156 195.449219 160.953125 194.617188 160.953125 C 193.78125 160.953125 192.980469 161.285156 192.394531 161.875 C 191.804688 162.464844 191.472656 163.261719 191.472656 164.097656 C 191.472656 164.929688 191.804688 165.730469 192.394531 166.320313 C 192.980469 166.910156 193.78125 167.242188 194.617188 167.242188 C 195.449219 167.242188 196.25 166.910156 196.839844 166.320313 C 197.429688 165.730469 197.761719 164.929688 197.761719 164.097656 Z M 197.761719 164.097656 "/>
<path style=" stroke:none;fill-rule:evenodd;fill:rgb(94.998169%,89.99939%,30.000305%);fill-opacity:1;" d="M 196.1875 164.097656 C 196.1875 163.679688 196.023438 163.28125 195.726563 162.984375 C 195.433594 162.691406 195.03125 162.523438 194.617188 162.523438 C 194.199219 162.523438 193.800781 162.691406 193.503906 162.984375 C 193.210938 163.28125 193.042969 163.679688 193.042969 164.097656 C 193.042969 164.515625 193.210938 164.914063 193.503906 165.207031 C 193.800781 165.503906 194.199219 165.667969 194.617188 165.667969 C 195.03125 165.667969 195.433594 165.503906 195.726563 165.207031 C 196.023438 164.914063 196.1875 164.515625 196.1875 164.097656 Z M 196.1875 164.097656 "/>
<path style=" stroke:none;fill-rule:evenodd;fill:rgb(0%,0%,0%);fill-opacity:1;" d="M 285.308594 182.234375 C 285.308594 145.355469 270.660156 109.980469 244.578125 83.902344 C 218.5 57.820313 183.128906 43.171875 146.246094 43.171875 C 109.363281 43.171875 73.992188 57.820313 47.910156 83.902344 C 21.832031 109.980469 7.179688 145.355469 7.179688 182.234375 C 7.179688 219.117188 21.832031 254.488281 47.910156 280.570313 C 73.992188 306.648438 109.363281 321.300781 146.246094 321.300781 C 183.128906 321.300781 218.5 306.648438 244.578125 280.570313 C 270.660156 254.488281 285.308594 219.117188 285.308594 182.234375 Z M 285.308594 182.234375 "/>
</g>
</svg>
